<svg
  fill="currentColor"
  xmlns="http://www.w3.org/2000/svg"
  viewBox="0 0 72 79"
><path
    fill-rule="evenodd"
    clip-rule="evenodd"
    d="M50 49v6h-6v-6h6zM62 49v6h-6v-6h6zM17 62v6h-6v-6h6zM28 62v6h-6v-6h6zM39 62v6h-6v-6h6zM50 62v6h-6v-6h6zM62 62v6h-6v-6h6zM11 10v6H5v-6h6zM67 74V16h5v58h-5zM55 10V0h6v10h-6zM11 10V0h6v10h-6zM0 74V16h5v58H0zM67 79H5v-5h62v5zM67 29H5v-5h62v5zM55.0592 15.5H16.9409v-5h38.1183v5zM67 10v6h-6v-6h6zM17 36v6h-6v-6h6zM28 36v6h-6v-6h6zM39 36v6h-6v-6h6zM50 36v6h-6v-6h6zM62 36v6h-6v-6h6zM17 49v6h-6v-6h6zM28 49v6h-6v-6h6zM39 49v6h-6v-6h6z"
  /></svg>
