<svg
  fill="currentColor"
  xmlns="http://www.w3.org/2000/svg"
  viewBox="0 0 169 106"
><path d="M58.4 85.5h-1.3v-2.1c0-.6.4-1 1-1h1.6v1.3h-1.4v1.8h.1z" /><path
    d="M57.4 86.3999h-1.6v-1.3h1.4v-1.1h1.3v1.4c-.1.5-.5 1-1.1 1zM59.8 90h-1.6c-.6 0-1-.4-1-1v-2.1h1.3v1.9h1.4V90h-.1z"
  /><path
    d="M58.4 88.4h-1.3v-1.2h-1.4v-1.3h1.6c.6 0 1 .4 1 1v1.5h.1zM64.8 90h-1.6v-1.3h1.4v-1.9h1.3V89c-.1.5-.6 1-1.1 1z"
  /><path
    d="M65.8 88.4h-1.3V87c0-.6.4-1 1-1h1.6v1.3h-1.4v1.1h.1zM65.8 85.5h-1.3v-1.9h-1.4v-1.3h1.6c.6 0 1 .4 1 1v2.2h.1z"
  /><path
    d="M67.1 86.4h-1.6c-.6 0-1-.4-1-1V84h1.3v1.2h1.4v1.2h-.1zM77 90h-1.6c-.6 0-1-.4-1-1v-5.6c0-.6.4-1 1-1H77v1.3h-1.4v5.1H77V90zM83.7 90H82v-1.3h1.4v-5.1H82v-1.3h1.6c.6 0 1 .4 1 1V89c.1.5-.4 1-.9 1zM96 90.6L92.4 87c-.5-.5-.5-1.3 0-1.8l3.6-3.6.9.9-3.6 3.6 3.6 3.6-.9.9zM100.6 90.6l-.9-.9 3.6-3.6-3.6-3.6.9-.9 3.6 3.6c.5.5.5 1.3 0 1.8l-3.6 3.6zM18 85.9v-3.7h3.8L18 85.9zM26 86.4v3.8h-3.7l3.7-3.8z"
  /><path
    d="M19.5335 82.7947l-.9193.9192 5.9397 5.9397.9192-.9193-5.9396-5.9396zM47.8 90.2c.8284 0 1.5-.6716 1.5-1.5 0-.8285-.6716-1.5-1.5-1.5s-1.5.6715-1.5 1.5c0 .8284.6716 1.5 1.5 1.5zM47.8 85.2c.8284 0 1.5-.6716 1.5-1.5 0-.8285-.6716-1.5-1.5-1.5s-1.5.6715-1.5 1.5c0 .8284.6716 1.5 1.5 1.5zM36.1 84.9c.8284 0 1.5-.6716 1.5-1.5 0-.8285-.6716-1.5-1.5-1.5s-1.5.6715-1.5 1.5c0 .8284.6716 1.5 1.5 1.5zM35.3 90.5h-1.8v-1.3h1.8c.1 0 .2-.1.2-.2v-2.9h1.3V89c0 .8-.7 1.5-1.5 1.5zM9.90001 90.8H.600006v-9.2H9.80001v9.2h.1zm-8-1.3h6.7v-6.7h-6.7v6.7z"
  /><path
    d="M10.6 80.8H7.89999v2.7H10.6v-2.7zM2.7 80.8H0v2.7h2.7v-2.7zM2.7 88.8H0v2.7h2.7v-2.7zM10.6 88.8H7.89999v2.7H10.6v-2.7zM58.4 69.3h-1.3v-2.1c0-.6.4-1 1-1h1.6v1.3h-1.4v1.8h.1z"
  /><path
    d="M57.4 70.2h-1.6V69h1.4v-1.2h1.3v1.4c-.1.6-.5 1-1.1 1zM59.8 73.8h-1.6c-.6 0-1-.4-1-1v-2.1h1.3v1.9h1.4v1.2h-.1z"
  /><path
    d="M58.4 72.2h-1.3V71h-1.4v-1.3h1.6c.6 0 1 .4 1 1v1.5h.1zM64.8 73.8h-1.6v-1.3h1.4v-1.9h1.3v2.1c-.1.7-.6 1.1-1.1 1.1z"
  /><path
    d="M65.8 72.2h-1.3v-1.4c0-.6.4-1 1-1h1.6V71h-1.4v1.2h.1zM65.8 69.3h-1.3v-1.9h-1.4v-1.3h1.6c.6 0 1 .4 1 1v2.2h.1z"
  /><path
    d="M67.1 70.2h-1.6c-.6 0-1-.4-1-1v-1.4h1.3V69h1.4v1.2h-.1zM77 73.8h-1.6c-.6 0-1-.4-1-1v-5.6c0-.6.4-1 1-1H77v1.3h-1.4v5.1H77v1.2zM83.7 73.8H82v-1.3h1.4v-5.1H82v-1.3h1.6c.6 0 1 .4 1 1v5.6c.1.7-.4 1.1-.9 1.1zM96 74.4l-3.6-3.6c-.5-.5-.5-1.3 0-1.8l3.6-3.6.9.9-3.5 3.7 3.6 3.6-1 .8zM100.6 74.4l-.9-.9 3.6-3.6-3.6-3.6.9-.9 3.6 3.6c.5.5.5 1.3 0 1.8l-3.6 3.6zM111.8 68.1h-1.3v3.7h1.3v-3.7zM114.1 68.1h-1.3v3.7h1.3v-3.7zM121.032 65.987l-1.993 7.748 1.26.3239 1.992-7.748-1.259-.3239zM131.4 71.1l-.8 1.7-2.5-5.6 5.5 2.6-1.7.8c-.2.1-.4.3-.5.5zM138 67.4l1.8 4.8 2.9-3-4.7-1.8z"
  /><path
    d="M140.362 68.7919l-.919.9192 2.899 2.8991.919-.9192-2.899-2.8991zM18 69.7V66h3.8L18 69.7zM26 70.3V74h-3.7l3.7-3.7z"
  /><path
    d="M19.5122 66.6037l-.9193.9192 5.9397 5.9397.9192-.9192-5.9396-5.9397zM47.8 74c.8284 0 1.5-.6716 1.5-1.5s-.6716-1.5-1.5-1.5-1.5.6716-1.5 1.5.6716 1.5 1.5 1.5zM47.8 69c.8284 0 1.5-.6716 1.5-1.5s-.6716-1.5-1.5-1.5-1.5.6716-1.5 1.5.6716 1.5 1.5 1.5zM36.1 68.7c.8284 0 1.5-.6716 1.5-1.5s-.6716-1.5-1.5-1.5-1.5.6716-1.5 1.5.6716 1.5 1.5 1.5zM35.3 74.3h-1.8V73h1.8c.1 0 .2-.1.2-.2v-2.9h1.3v2.9c0 .9-.7 1.5-1.5 1.5zM9.90001 74.6H.600006v-9.2H9.80001v9.2h.1zm-8-1.2h6.7v-6.7h-6.7v6.7z"
  /><path
    d="M10.6 64.7H7.89999v2.7H10.6v-2.7zM2.7 64.7H0v2.7h2.7v-2.7zM2.7 72.7H0v2.7h2.7v-2.7zM10.6 72.7H7.89999v2.7H10.6v-2.7zM18 53.6v-3.8h3.8L18 53.6zM26 54.1v3.7h-3.7l3.7-3.7z"
  /><path
    d="M19.5615 50.4834l-.9192.9192 5.9396 5.9397.9193-.9192-5.9397-5.9397zM47.8 57.8c.8284 0 1.5-.6716 1.5-1.5s-.6716-1.5-1.5-1.5-1.5.6716-1.5 1.5.6716 1.5 1.5 1.5zM47.8 52.8c.8284 0 1.5-.6716 1.5-1.5s-.6716-1.5-1.5-1.5-1.5.6716-1.5 1.5.6716 1.5 1.5 1.5zM36.1 52.5c.8284 0 1.5-.6716 1.5-1.5s-.6716-1.5-1.5-1.5-1.5.6716-1.5 1.5.6716 1.5 1.5 1.5zM35.3 58.1h-1.8v-1.3h1.8c.1 0 .2-.1.2-.2v-2.9h1.3v2.9c0 .9-.7 1.5-1.5 1.5zM9.90001 58.4H.600006v-9.2H9.80001v9.2h.1zm-8-1.2h6.7v-6.7h-6.7v6.7z"
  /><path
    d="M10.6 48.5H7.89999v2.7H10.6v-2.7zM2.7 48.5H0v2.7h2.7v-2.7zM2.7 56.5H0v2.7h2.7v-2.7zM10.6 56.5H7.89999v2.7H10.6v-2.7zM58.4 37h-1.3v-2.1c0-.6.4-1 1-1h1.6v1.3h-1.4V37h.1z"
  /><path
    d="M57.4 37.9h-1.6v-1.3h1.4v-1.2h1.3v1.4c-.1.6-.5 1.1-1.1 1.1zM59.8 41.5h-1.6c-.6 0-1-.4-1-1v-2.1h1.3v1.9h1.4v1.2h-.1z"
  /><path
    d="M58.4 39.8h-1.3v-1.2h-1.4v-1.3h1.6c.6 0 1 .4 1 1v1.5h.1zM64.8 41.5h-1.6v-1.3h1.4v-1.9h1.3v2.1c-.1.6-.6 1.1-1.1 1.1z"
  /><path
    d="M65.8 39.8h-1.3v-1.4c0-.6.4-1 1-1h1.6v1.3h-1.4v1.1h.1zM65.8 37h-1.3v-1.9h-1.4v-1.3h1.6c.6 0 1 .4 1 1V37h.1z"
  /><path
    d="M67.1 37.9h-1.6c-.6 0-1-.4-1-1v-1.4h1.3v1.2h1.4v1.2h-.1zM77 41.5h-1.6c-.6 0-1-.4-1-1v-5.6c0-.6.4-1 1-1H77v1.3h-1.4v5.1H77v1.2zM83.7 41.5H82v-1.3h1.4v-5.1H82v-1.3h1.6c.6 0 1 .4 1 1v5.6c.1.6-.4 1.1-.9 1.1zM96 42.1l-3.6-3.6c-.5-.5-.5-1.3 0-1.8l3.6-3.6.9.9-3.6 3.6 3.6 3.6-.9.9zM100.6 42.1l-.9-.9 3.6-3.6-3.6-3.6.9-.9 3.6 3.6c.5.5.5 1.3 0 1.8l-3.6 3.6zM111.8 35.8h-1.3v3.7h1.3v-3.7zM114.1 35.8h-1.3v3.7h1.3v-3.7zM120.973 33.6333l-1.993 7.748 1.259.3238 1.993-7.748-1.259-.3238zM131.4 38.8l-.8 1.7-2.5-5.6 5.5 2.6-1.7.8c-.2.1-.4.3-.5.5zM138 35.1l1.8 4.7 2.9-2.9-4.7-1.8z"
  /><path
    d="M140.32 36.4098l-.92.9192 2.899 2.8992.92-.9193-2.899-2.8991zM151.2 41.7H150v-2.9c0-.2.1-.4.2-.6l.5-.5-.5-.5c-.1-.1-.2-.3-.2-.5v-2.9h1.3v2.7l.7.7c.3.3.3.8 0 1.1l-.7.7v2.7h-.1zM155.2 41.7H154V39l-.7-.7c-.3-.3-.3-.8 0-1.1l.7-.7v-2.7h1.3v2.9c0 .2-.1.4-.2.5l-.5.5.5.5c.1.1.2.3.2.5v3h-.1z"
  /><path
    d="M156.1 41h-6.9v1.3h6.9V41zM156.1 33h-6.9v1.3h6.9V33zM162.4 37.7h3v-3c-1.7-.1-3 1.3-3 3zM165.4 40.7c1.7 0 3-1.4 3-3h-3v3zM18 37.4v-3.7h3.8L18 37.4zM26 37.9v3.8h-3.7l3.7-3.8z"
  /><path
    d="M19.5402 34.2924l-.9192.9192 5.9396 5.9396.9193-.9192-5.9397-5.9396zM47.8 41.6c.8284 0 1.5-.6715 1.5-1.5 0-.8284-.6716-1.5-1.5-1.5s-1.5.6716-1.5 1.5c0 .8285.6716 1.5 1.5 1.5zM47.8 36.7c.8284 0 1.5-.6716 1.5-1.5s-.6716-1.5-1.5-1.5-1.5.6716-1.5 1.5.6716 1.5 1.5 1.5zM36.1 36.4c.8284 0 1.5-.6716 1.5-1.5 0-.8285-.6716-1.5-1.5-1.5s-1.5.6715-1.5 1.5c0 .8284.6716 1.5 1.5 1.5zM35.3 42h-1.8v-1.3h1.8c.1 0 .2-.1.2-.2v-2.9h1.3v2.9c0 .8-.7 1.5-1.5 1.5zM9.90001 42.3H.600006V33H9.80001v9.3h.1zm-8-1.3h6.7v-6.7h-6.7V41z"
  /><path
    d="M10.6 32.3H7.89999V35H10.6v-2.7zM2.7 32.3H0V35h2.7v-2.7zM2.7 40.3H0V43h2.7v-2.7zM10.6 40.3H7.89999V43H10.6v-2.7zM58.4 20.8h-1.3v-2.1c0-.6.4-1 1-1h1.6V19h-1.4v1.8h.1z"
  /><path
    d="M57.4 21.7h-1.6v-1.3h1.4v-1.2h1.3v1.4c-.1.7-.5 1.1-1.1 1.1zM59.8 25.3h-1.6c-.6 0-1-.4-1-1v-2.1h1.3v1.9h1.4v1.2h-.1z"
  /><path
    d="M58.4 23.7h-1.3v-1.2h-1.4v-1.3h1.6c.6 0 1 .4 1 1v1.5h.1zM64.8 25.3h-1.6V24h1.4v-1.9h1.3v2.1c-.1.7-.6 1.1-1.1 1.1z"
  /><path
    d="M65.8 23.7001h-1.3V22.3c0-.6.4-1 1-1h1.6v1.3h-1.4v1.1001h.1zM65.8 20.8h-1.3v-1.9h-1.4v-1.3h1.6c.6 0 1 .4 1 1v2.2h.1z"
  /><path
    d="M67.1 21.7001h-1.6c-.6 0-1-.4-1-1V19.3h1.3v1.2h1.4v1.2001h-.1zM77 25.3h-1.6c-.6 0-1-.4-1-1v-5.6c0-.6.4-1 1-1H77V19h-1.4v5H77v1.3zM83.7 25.3H82V24h1.4v-5.1H82v-1.3h1.6c.6 0 1 .4 1 1v5.6c.1.7-.4 1.1-.9 1.1zM96 25.9l-3.6-3.6c-.5-.5-.5-1.3 0-1.8L96 17l.9.9-3.6 3.6 3.6 3.6-.9.8zM100.6 25.9l-.9-.9 3.6-3.6-3.6-3.6.9-.9 3.6 3.6c.5.5.5 1.3 0 1.8l-3.6 3.6zM111.8 19.6h-1.3v3.7h1.3v-3.7zM114.1 19.6h-1.3v3.7h1.3v-3.7zM121.04 17.4813l-1.993 7.748 1.259.3238 1.993-7.748-1.259-.3238zM131.4 22.6l-.8 1.7-2.5-5.6 5.5 2.6-1.7.8c-.2.1-.4.3-.5.5zM138 18.9l1.8 4.7 2.9-2.9-4.7-1.8z"
  /><path
    d="M140.369 20.2896l-.919.9192 2.899 2.8991.919-.9192-2.899-2.8991zM18 21.2v-3.7h3.8L18 21.2zM26 21.7v3.8h-3.7l3.7-3.8z"
  /><path
    d="M19.5189 18.1014l-.9192.9192 5.9396 5.9397.9192-.9193-5.9396-5.9396zM47.8 25.5c.8284 0 1.5-.6716 1.5-1.5s-.6716-1.5-1.5-1.5-1.5.6716-1.5 1.5.6716 1.5 1.5 1.5zM47.8 20.5c.8284 0 1.5-.6716 1.5-1.5s-.6716-1.5-1.5-1.5-1.5.6716-1.5 1.5.6716 1.5 1.5 1.5zM36.1 20.2c.8284 0 1.5-.6716 1.5-1.5s-.6716-1.5-1.5-1.5-1.5.6716-1.5 1.5.6716 1.5 1.5 1.5zM35.3 25.8h-1.8v-1.3h1.8c.1 0 .2-.1.2-.2v-2.9h1.3v2.9c0 .9-.7 1.5-1.5 1.5zM9.90001 26.1H.600006v-9.2H9.80001v9.2h.1zm-8-1.2h6.7v-6.7h-6.7v6.7z"
  /><path
    d="M10.6 16.2H7.89999v2.7H10.6v-2.7zM2.7 16.2H0v2.7h2.7v-2.7zM2.7 24.1H0v2.7h2.7v-2.7zM10.6 24.1H7.89999v2.7H10.6v-2.7zM58.4 4.6h-1.3V2.5c0-.6.4-1 1-1h1.6v1.3h-1.4v1.8h.1z"
  /><path
    d="M57.4 5.49998h-1.6v-1.2h1.4v-1.2h1.3v1.4c-.1.6-.5 1-1.1 1zM59.8 9.1h-1.6c-.6 0-1-.4-1-1V6h1.3v1.9h1.4v1.2h-.1z"
  /><path
    d="M58.4 7.49998h-1.3v-1.2h-1.4v-1.2h1.6c.6 0 1 .4 1 1v1.4h.1zM64.8 9.1h-1.6V7.9h1.4V6h1.3v2.1c-.1.6-.6 1-1.1 1z"
  /><path
    d="M65.8 7.49998h-1.3v-1.4c0-.6.4-1 1-1h1.6v1.3h-1.4v1.1h.1zM65.8 4.6h-1.3V2.7h-1.4V1.5h1.6c.6 0 1 .4 1 1v2.1h.1z"
  /><path
    d="M67.1 5.49998h-1.6c-.6 0-1-.4-1-1v-1.4h1.3v1.2h1.4v1.2h-.1zM77 9.1h-1.6c-.6 0-1-.4-1-1V2.5c0-.6.4-1 1-1H77v1.3h-1.4v5.1H77v1.2zM83.7 9.1H82V7.9h1.4V2.8H82V1.5h1.6c.6 0 1 .4 1 1v5.6c.1.6-.4 1-.9 1zM18 5.09999v-3.8h3.8l-3.8 3.8zM26 5.59998v3.7h-3.7l3.7-3.7z"
  /><path
    d="M19.4976 1.91036l-.9192.91923 5.9396 5.93964.9192-.91923-5.9396-5.93964zM47.8 9.29999c.8284 0 1.5-.67158 1.5-1.5 0-.82843-.6716-1.5-1.5-1.5s-1.5.67157-1.5 1.5c0 .82842.6716 1.5 1.5 1.5zM47.8 4.29999c.8284 0 1.5-.67158 1.5-1.5 0-.82843-.6716-1.5-1.5-1.5s-1.5.67157-1.5 1.5c0 .82842.6716 1.5 1.5 1.5zM36.1 4c.8284 0 1.5-.67157 1.5-1.5S36.9284 1 36.1 1s-1.5.67157-1.5 1.5.6716 1.5 1.5 1.5zM35.3 9.59999h-1.8v-1.2h1.8c.1 0 .2-.1.2-.2v-2.9h1.3v2.9c0 .8-.7 1.4-1.5 1.4zM9.90001 9.90001H.600006V.700012H9.80001V9.90001h.1zm-8-1.2h6.7v-6.7h-6.7v6.7z"
  /><path
    d="M10.6 0H7.89999v2.7H10.6V0zM2.7 0H0v2.7h2.7V0zM2.7 8H0v2.7h2.7V8zM10.6 8H7.89999v2.7H10.6V8zM58.4 99.8h-1.3v-2.1c0-.6.4-1 1-1h1.6V98h-1.4v1.8h.1z"
  /><path
    d="M57.4 100.7h-1.6v-1.3h1.4v-1.2h1.3v1.4c-.1.7-.5 1.1-1.1 1.1zM59.8 104.3h-1.6c-.6 0-1-.4-1-1v-2.1h1.3v1.9h1.4v1.2h-.1z"
  /><path
    d="M58.4 102.7h-1.3v-1.2h-1.4v-1.3h1.6c.6 0 1 .4 1 1v1.5h.1zM64.8 104.3h-1.6V103h1.4v-1.9h1.3v2.1c-.1.7-.6 1.1-1.1 1.1z"
  /><path
    d="M65.8 102.7h-1.3v-1.4c0-.6.4-1 1-1h1.6v1.3h-1.4v1.1h.1zM65.8 99.8h-1.3v-1.9h-1.4v-1.3h1.6c.6 0 1 .4 1 1v2.2h.1z"
  /><path
    d="M67.1 100.7h-1.6c-.6 0-1-.4-1-1v-1.4h1.3v1.2h1.4v1.2h-.1zM77 104.3h-1.6c-.6 0-1-.4-1-1v-5.6c0-.6.4-1 1-1H77V98h-1.4v5.1H77v1.2zM83.7 104.3H82V103h1.4v-5.1H82v-1.3h1.6c.6 0 1 .4 1 1v5.6c.1.7-.4 1.1-.9 1.1zM96 104.9l-3.6-3.6c-.5-.5-.5-1.3 0-1.8l3.6-3.6.9.9-3.6 3.6 3.6 3.6-.9.9zM100.6 104.9l-.9-.9 3.6-3.6-3.6-3.6.9-.9 3.6 3.6c.5.5.5 1.3 0 1.8l-3.6 3.6zM111.8 98.6h-1.3v3.7h1.3v-3.7zM114.1 98.6h-1.3v3.7h1.3v-3.7zM121.035 96.4848l-1.993 7.7482 1.259.324 1.993-7.7484-1.259-.3238zM131.4 101.6l-.8 1.7-2.5-5.6 5.5 2.6-1.7.8c-.2.1-.4.3-.5.5zM138 97.9l1.8 4.8 2.9-3-4.7-1.8z"
  /><path
    d="M140.363 99.291l-.919.919 2.899 2.899.92-.919-2.9-2.899zM151.2 104.5H150v-2.9c0-.2.1-.4.2-.6l.5-.5-.5-.5c-.1-.1-.2-.3-.2-.5v-2.9h1.3v2.7l.7.7c.3.3.3.8 0 1.1l-.7.7v2.7h-.1zM155.2 104.5H154v-2.7l-.7-.7c-.3-.3-.3-.8 0-1.1l.7-.7v-2.7h1.3v2.9c0 .2-.1.4-.2.5l-.5.5.5.5c.1.1.2.3.2.5v3h-.1z"
  /><path
    d="M156.1 103.9h-6.9v1.3h6.9v-1.3zM156.1 95.9h-6.9v1.3h6.9v-1.3zM162.4 100.5h3v-3c-1.7-.1-3 1.3-3 3zM165.4 103.5c1.7 0 3-1.4 3-3h-3v3zM18 100.2v-3.7h3.8l-3.8 3.7zM26 100.7v3.8h-3.7l3.7-3.8z"
  /><path
    d="M19.5134 97.103l-.9192.9192 5.9396 5.9398.9192-.919-5.9396-5.94zM47.8 104.5c.8284 0 1.5-.672 1.5-1.5s-.6716-1.5-1.5-1.5-1.5.672-1.5 1.5.6716 1.5 1.5 1.5zM47.8 99.5c.8284 0 1.5-.6716 1.5-1.5s-.6716-1.5-1.5-1.5-1.5.6716-1.5 1.5.6716 1.5 1.5 1.5zM36.1 99.2c.8284 0 1.5-.6716 1.5-1.5s-.6716-1.5-1.5-1.5-1.5.6716-1.5 1.5.6716 1.5 1.5 1.5zM35.3 104.8h-1.8v-1.3h1.8c.1 0 .2-.1.2-.2v-2.9h1.3v2.9c0 .9-.7 1.5-1.5 1.5zM9.90001 105.1H.600006v-9.2H9.80001v9.2h.1zm-8-1.2h6.7v-6.7h-6.7v6.7z"
  /><path
    d="M10.6 95.2H7.89999v2.7H10.6v-2.7zM2.7 95.2H0v2.7h2.7v-2.7zM2.7 103.2H0v2.7h2.7v-2.7zM10.6 103.2H7.89999v2.7H10.6v-2.7z"
  /></svg>
