<svg
  fill="currentColor"
  xmlns="http://www.w3.org/2000/svg"
  viewBox="0 0 113 113"
><path
    d="M56.2 0C25.2 0 0 25.2 0 56.2c0 31 25.2 56.2 56.2 56.2 31 0 56.2-25.2 56.2-56.2 0-31-25.2-56.2-56.2-56.2zM9.6 51.9c0-.5.1-1 .2-1.4v1.4h-.2zm20.1 42.9v-7.9h10v-10h10v-10h-10v-10h-10v-10H10.3c1.2-5.8 3.4-11.2 6.5-16h12.9v10h10v-10h20v-10h10v-9.5c5.6 1.7 10.7 4.4 15.2 7.9h-4.3v10h10v-4.8c3.9 4.3 7.1 9.3 9.2 14.8h-9v9.9l-.2.2v-.1h-10v10h-10v10h10v20h8.5c-8.5 8.5-20.2 13.7-33 13.7-9.7 0-18.8-3-26.4-8.2z"
  /><path d="M80.6 29.3h-10v10h10v-10zM70.7 79.3h-10v10h10v-10z" /></svg>
