<svg
  fill="currentColor"
  xmlns="http://www.w3.org/2000/svg"
  viewBox="0 0 72 74"
><path
    d="M59.4242 36.7c6.2-3.3 12.6-7.6 11.5-11.1-1.2-3.7-9.9-3.1-17.2-2 3.4-6.6 6.9-15.1 3.7-17.4-3.1-2.2-9.7 3.1-14.8 8.2-1.3-6.8-3.5-14.4-7.1-14.4-3.7 0-5.8 7.6-7 14.5-5.2-5.1-11.8-10.5-14.9-8.3-3.2 2.3.3 10.8 3.7 17.4-7.2-1.1-15.99998-1.7-17.199978 2-1.1 3.5 5.299998 7.8 11.499978 11.1C5.42422 40-.975778 44.3.124222 47.8c1.199998 3.7 9.899978 3.1 17.199978 2-3.4 6.6-6.9 15.1-3.7 17.4 3.1 2.2 9.7-3.1 14.8-8.2 1.2 6.9 3.3 14.5 7 14.5s5.8-7.6 7-14.5c5.1 5.1 11.7 10.5 14.8 8.2 3.2-2.3-.3-10.8-3.7-17.4 7.2 1.1 16 1.7 17.2-2 1.2-3.5-5.2-7.8-11.3-11.1z"
  /></svg>
