<svg xmlns="http://www.w3.org/2000/svg" overflow="visible" viewBox="0 0 173 40.2">
<path
  style="fill:currentColor;"
  d="M25.3 14.8c0-1.3.2-2.5.6-3.6.4-1.1 1-1.9 1.7-2.7.7-.7 1.5-1.3 2.5-1.6 1-.4 2-.6 3-.6 1.1 0 2.2.2 3.2.7 1 .5 1.7 1.3 2.3 2.3h.4V0h2.6v23.3H39v-2.5h-.4c-.3.5-.6 1-1 1.3-.4.4-.9.7-1.3.9-.5.2-1 .4-1.5.5-.5.1-1 .2-1.5.2-1.1 0-2.1-.2-3.1-.6-1-.4-1.8-.9-2.5-1.6-.7-.7-1.3-1.6-1.7-2.6-.4-1.1-.6-2.3-.6-3.6v-.5zm3.1 3c.3.7.6 1.4 1.1 1.9.5.5 1.1.9 1.7 1.2.7.3 1.4.4 2.2.4.8 0 1.5-.1 2.2-.4.7-.3 1.2-.7 1.7-1.2s.9-1.2 1.2-1.9c.3-.7.4-1.6.4-2.5v-.4c0-.9-.1-1.7-.4-2.4-.3-.7-.7-1.4-1.2-1.9s-1.1-.9-1.8-1.2c-.7-.3-1.4-.4-2.1-.4-.8 0-1.5.1-2.2.4-.7.3-1.3.7-1.8 1.2s-.9 1.2-1.2 1.9c-.3.7-.4 1.5-.4 2.4v.5c.1.9.3 1.7.6 2.4zM44.5 15.3v-.8c0-1.2.2-2.2.6-3.2.4-1 1-1.9 1.7-2.6.7-.7 1.6-1.3 2.6-1.7 1-.4 2.1-.6 3.2-.6 1.4 0 2.5.2 3.5.7 1 .5 1.8 1.1 2.4 1.8.6.7 1.1 1.5 1.4 2.4.3.9.4 1.7.4 2.4v2.1H47.1c.1 1.6.6 3 1.5 4 1 1 2.3 1.5 4 1.5.8 0 1.5-.1 2-.3.6-.2 1.1-.4 1.5-.7.4-.3.7-.7 1-1.1.3-.4.5-.8.6-1.3l2.5.7c-.5 1.5-1.3 2.8-2.6 3.7-1.3 1-2.9 1.4-5.1 1.4-1.2 0-2.3-.2-3.2-.6-1-.4-1.8-1-2.5-1.7-.7-.8-1.3-1.7-1.7-2.7-.4-1-.6-2.2-.6-3.4zm2.7-1.8h10.7c0-.7-.2-1.4-.5-1.9-.3-.6-.7-1.1-1.2-1.5-.5-.4-1-.7-1.6-.9-.6-.2-1.2-.3-1.9-.3s-1.4.1-2 .3c-.6.2-1.2.6-1.7 1s-.9.9-1.2 1.5c-.3.5-.5 1.1-.6 1.8zM65 6.8l5 15.3h.4l5.1-15.3h3.1l-5.8 16.5h-5.1L61.9 6.8H65zM85.8 6.8V2.6c0-.8.2-1.4.7-1.9.5-.5 1.1-.7 1.9-.7h6.5v2.4h-5.6c-.6 0-.9.3-.9 1v3.4h6.9v2.4h-6.9v14.1h-2.6V9.2h-5.1V6.8h5.1zM96.2 15.3v-.8c0-1.2.2-2.2.6-3.2.4-1 1-1.9 1.7-2.6.7-.7 1.6-1.3 2.6-1.7 1-.4 2.1-.6 3.2-.6 1.4 0 2.5.2 3.5.7 1 .5 1.8 1.1 2.4 1.8.6.7 1.1 1.5 1.4 2.4.3.9.4 1.7.4 2.4v2.1H98.8c.1 1.6.6 3 1.5 4 1 1 2.3 1.5 4 1.5.8 0 1.5-.1 2-.3.6-.2 1.1-.4 1.5-.7.4-.3.7-.7 1-1.1.3-.4.5-.8.6-1.3l2.5.7c-.5 1.5-1.3 2.8-2.6 3.7-1.3 1-2.9 1.4-5.1 1.4-1.2 0-2.3-.2-3.2-.6-1-.4-1.8-1-2.5-1.7-.7-.8-1.3-1.7-1.7-2.7-.4-1-.6-2.2-.6-3.4zm2.6-1.8h10.7c0-.7-.2-1.4-.5-1.9-.3-.6-.7-1.1-1.2-1.5-.5-.4-1-.7-1.6-.9-.6-.2-1.2-.3-1.9-.3s-1.4.1-2 .3c-.6.2-1.2.6-1.7 1s-.9.9-1.2 1.5-.5 1.1-.6 1.8zM117.2 17.2c.1 1.3.6 2.3 1.5 3 .9.8 2 1.1 3.5 1.1 1.2 0 2.2-.2 2.9-.7.7-.5 1.1-1.1 1.1-2 0-.9-.4-1.6-1.1-2-.7-.4-1.9-.7-3.6-.8-1.9-.1-3.4-.6-4.4-1.3-1-.8-1.5-1.9-1.5-3.3V11c0-.8.2-1.5.5-2 .3-.6.8-1.1 1.3-1.5.6-.4 1.2-.7 1.9-.9.7-.2 1.5-.3 2.2-.3 1.1 0 2 .1 2.9.4.8.3 1.5.7 2.1 1.2.6.5 1 1 1.3 1.6.3.6.5 1.2.6 1.9l-2.5.6c-.1-1.1-.5-1.9-1.3-2.5-.7-.6-1.7-.9-2.9-.9-.5 0-.9 0-1.3.1s-.8.2-1.1.4c-.3.2-.6.4-.8.7-.2.3-.3.6-.3 1 0 .8.3 1.4 1 1.8.7.4 1.9.7 3.7.8 1.9.2 3.4.6 4.4 1.4 1 .8 1.5 1.9 1.5 3.3v.2c0 .8-.2 1.5-.5 2.1-.3.6-.8 1.2-1.3 1.6-.6.4-1.3.8-2.1 1-.8.2-1.7.3-2.6.3-1.3 0-2.4-.2-3.3-.5-.9-.3-1.7-.8-2.3-1.4-.6-.6-1.1-1.2-1.4-1.9-.3-.7-.5-1.4-.5-2.2l2.4-.1zM130.6 6.8h5.2V0h2.6v6.8h6.4v2.4h-6.4v10.7c0 .7.3 1 .9 1h4.7v2.4h-5.6c-.8 0-1.4-.2-1.8-.7-.5-.5-.7-1.1-.7-1.9V9.2h-5.2V6.8zM.8 31.6c.6-.7 1.4-1 2.4-1 .5 0 1 .1 1.4.3.4.2.7.4 1 .7.3.3.5.7.6 1.1.1.4.2.8.2 1.3v.2H5.3V34c0-.3-.1-.6-.1-.9-.1-.3-.2-.5-.4-.7-.2-.2-.4-.4-.6-.5-.3-.1-.6-.2-1-.2-.7 0-1.2.3-1.6.8-.4.5-.5 1.2-.5 2v1.9c0 .9.2 1.6.5 2.1.4.5.9.7 1.6.7.4 0 .7-.1 1-.2.3-.1.5-.3.7-.5s.3-.5.4-.7c.1-.3.1-.6.1-.9v-.2h1.1v.2c0 .5-.1.9-.2 1.3s-.3.8-.6 1.1c-.3.3-.6.5-1 .7-.4.2-.9.3-1.4.3-1 0-1.8-.3-2.4-1S0 37.6 0 36.4v-2c0-1.2.3-2.1.8-2.8zM6.8 36.8v-.2c0-.5.1-1 .2-1.4.2-.4.4-.8.6-1s.6-.5 1-.6c.4-.1.8-.2 1.2-.2.4 0 .8.1 1.2.3.4.2.6.5.9.9h.2v-1h1v5.1c0 .3.1.4.4.4h.3v.9h-.7c-.3 0-.5-.1-.7-.3-.2-.2-.3-.4-.3-.7v-.1h-.2c-.2.4-.5.8-.9 1-.4.2-.8.3-1.2.3-.4 0-.8-.1-1.2-.2-.4-.1-.7-.4-1-.6s-.5-.6-.6-1-.2-1-.2-1.6zm1.1-.2v.2c0 .7.2 1.3.6 1.7.4.4.9.6 1.5.6.3 0 .6-.1.8-.2.3-.1.5-.3.7-.5.2-.2.3-.5.4-.7s.2-.6.2-1v-.2c0-.3-.1-.7-.2-1s-.2-.5-.4-.7c-.2-.2-.4-.4-.7-.5-.3-.1-.5-.2-.8-.2-.3 0-.6.1-.8.2-.3.1-.5.3-.7.5-.2.2-.3.5-.4.7-.2.5-.2.8-.2 1.1zM15.4 37.6c0 .5.2.9.6 1.2.3.3.8.4 1.4.4.5 0 .9-.1 1.2-.3.3-.2.4-.4.4-.8s-.1-.6-.4-.8c-.3-.2-.8-.3-1.4-.3-.7-.1-1.3-.2-1.7-.5s-.6-.7-.6-1.3v-.1c0-.3.1-.6.2-.8.1-.2.3-.4.5-.6.2-.2.5-.3.7-.4.3-.1.6-.1.9-.1.4 0 .8.1 1.1.2.3.1.6.3.8.5.2.2.4.4.5.6s.2.5.2.7l-1 .2c0-.4-.2-.7-.5-1-.3-.2-.7-.4-1.1-.4-.2 0-.4 0-.5.1-.2 0-.3.1-.5.2l-.3.3c-.1.1-.1.3-.1.4 0 .3.1.6.4.7s.7.3 1.5.3c.8.1 1.3.2 1.7.5.4.3.6.7.6 1.3v.1c0 .3-.1.6-.2.8-.1.2-.3.5-.5.6-.2.2-.5.3-.8.4-.3.1-.7.1-1 .1-.5 0-.9-.1-1.3-.2s-.7-.3-.9-.5c-.2-.2-.4-.5-.5-.8-.1-.3-.2-.6-.2-.9l.8.2zM21 36.8v-.2c0-.5.1-1 .2-1.4.2-.4.4-.8.6-1s.6-.5 1-.6c.4-.1.8-.2 1.2-.2.4 0 .8.1 1.2.3.4.2.6.5.9.9h.2v-1h1v5.1c0 .3.1.4.4.4h.3v.9h-.7c-.3 0-.5-.1-.7-.3-.2-.2-.3-.4-.3-.7v-.1H26c-.2.4-.5.8-.9 1-.4.2-.8.3-1.2.3-.4 0-.8-.1-1.2-.2-.4-.1-.7-.4-1-.6s-.5-.6-.6-1-.1-1-.1-1.6zm1-.2v.2c0 .7.2 1.3.6 1.7.4.4.9.6 1.5.6.3 0 .6-.1.8-.2.3-.1.5-.3.7-.5.2-.2.3-.5.4-.7s.2-.6.2-1v-.2c0-.3-.1-.7-.2-1s-.2-.5-.4-.7c-.2-.2-.4-.4-.7-.5-.3-.1-.5-.2-.8-.2-.3 0-.6.1-.8.2-.3.1-.5.3-.7.5-.2.2-.3.5-.4.7-.1.5-.2.8-.2 1.1zM29.3 30.9v3.7h.2c.2-.4.5-.7.9-.9s.8-.3 1.3-.3c.4 0 .8.1 1.1.2s.7.4.9.6c.3.3.5.6.7 1 .2.4.2.9.2 1.4v.3c0 .5-.1 1-.2 1.4-.2.4-.4.8-.6 1-.3.3-.6.5-1 .6-.4.1-.8.2-1.2.2-.2 0-.4 0-.6-.1-.2 0-.4-.1-.6-.2-.2-.1-.4-.2-.5-.4s-.3-.3-.4-.5h-.2v1h-1v-9.1h1zm0 5.9c0 .4.1.7.2 1 .1.3.3.5.5.7.2.2.4.4.7.5s.5.2.8.2c.3 0 .6-.1.9-.2s.5-.3.7-.5.3-.4.5-.7c.1-.3.2-.6.2-1v-.3c0-.3-.1-.7-.2-.9s-.3-.5-.5-.7-.4-.4-.7-.5c-.3-.1-.5-.2-.9-.2s-.6.1-.8.2-.5.4-.7.6c-.2.2-.3.5-.5.7-.1.3-.2.6-.2 1v.1zM35.6 40v-1H38v-7.2h-2.3v-.9H39V39h2.3v1h-5.7zM42.2 36.8v-.2c0-.5.1-1 .2-1.4.2-.4.4-.8.6-1s.6-.5 1-.6c.4-.1.8-.2 1.2-.2.4 0 .8.1 1.2.3.4.2.6.5.9.9h.2v-1h1v5.1c0 .3.1.4.4.4h.3v.9h-.7c-.3 0-.5-.1-.7-.3-.2-.2-.3-.4-.3-.7v-.1h-.2c-.2.4-.5.8-.9 1-.4.2-.8.3-1.2.3-.4 0-.8-.1-1.2-.2-.4-.1-.7-.4-1-.6s-.5-.6-.6-1-.2-1-.2-1.6zm1-.2v.2c0 .7.2 1.3.6 1.7.4.4.9.6 1.5.6.3 0 .6-.1.8-.2.3-.1.5-.3.7-.5.2-.2.3-.5.4-.7s.2-.6.2-1v-.2c0-.3-.1-.7-.2-1s-.2-.3-.4-.5-.4-.4-.7-.5c-.3-.1-.5-.2-.8-.2-.3 0-.6.1-.8.2-.3.1-.5.3-.7.5-.2.2-.3.5-.4.7-.2.3-.2.6-.2.9zM49.7 40v-6.5h1v1.1h.2c.4-.9 1.1-1.3 2.1-1.3.7 0 1.3.2 1.8.7.4.5.7 1.2.7 2.1V40h-1v-3.6c0-.7-.2-1.2-.5-1.5s-.7-.5-1.2-.5c-.6 0-1.1.2-1.5.6-.4.4-.5 1-.5 1.7V40h-1.1zM56.7 35.3c.2-.4.4-.8.7-1.1.3-.3.7-.5 1.1-.7.4-.2.8-.2 1.3-.2.4 0 .8.1 1.1.2.3.1.7.3.9.5.3.2.5.5.7.8.2.3.3.6.3 1l-1 .2c0-.2-.1-.4-.2-.7s-.2-.4-.4-.6c-.2-.2-.4-.3-.6-.4-.2-.1-.5-.1-.8-.1-.3 0-.6.1-.9.2-.3.1-.5.3-.7.5-.2.2-.4.5-.5.8-.1.3-.2.6-.2 1v.2c0 .4.1.7.2 1s.3.5.5.7c.2.2.5.4.7.5s.6.2.9.2.6 0 .8-.1c.2-.1.4-.2.6-.4.2-.2.3-.3.4-.6.1-.2.2-.4.2-.7l1 .2c-.1.4-.2.7-.4 1-.2.3-.4.6-.6.8-.3.2-.6.4-.9.5-.3.1-.7.2-1.2.2s-.9-.1-1.3-.2-.8-.4-1.1-.6-.5-.6-.7-1c-.2-.4-.3-.9-.3-1.4v-.2c.1-.6.2-1.1.4-1.5zM63.3 36.8v-.2c0-.5.1-1 .2-1.4.2-.4.4-.8.6-1s.6-.5 1-.6c.4-.1.8-.2 1.2-.2.4 0 .8.1 1.2.3.4.2.6.5.9.9h.2v-1h1v5.1c0 .3.1.4.4.4h.3v.9h-.7c-.3 0-.5-.1-.7-.3-.2-.2-.3-.4-.3-.7v-.1h-.2c-.2.4-.5.8-.9 1-.4.2-.8.3-1.2.3-.4 0-.8-.1-1.2-.2-.4-.1-.7-.4-1-.6s-.5-.6-.6-1-.2-1-.2-1.6zm1.1-.2v.2c0 .7.2 1.3.6 1.7.4.4.9.6 1.5.6.3 0 .6-.1.8-.2.3-.1.5-.3.7-.5.2-.2.3-.5.4-.7s.2-.6.2-1v-.2c0-.3-.1-.7-.2-1s-.3-.3-.4-.5c-.2-.2-.4-.4-.7-.5-.3-.1-.5-.2-.8-.2-.3 0-.6.1-.8.2-.3.1-.5.3-.7.5-.2.2-.3.5-.4.7-.2.3-.2.6-.2.9zM79.8 36.7v-.2l-1.9-3.1h1.2l1.6 2.7h.3l1.6-2.7h1.2l-1.9 3.1v.2l2.1 3.2h-1.2L81 37.1h-.2L79 40h-1.2l2-3.3zM92.7 36.4v.3c0 .8.2 1.4.7 1.8.4.4 1 .6 1.8.6.7 0 1.2-.1 1.5-.4.3-.3.5-.7.5-1.2v-.1c0-.5-.2-.8-.5-1.1s-.9-.4-1.7-.5c-.5-.1-.9-.2-1.2-.3s-.8-.3-1-.5-.5-.4-.6-.7-.2-.6-.2-1v-.2c0-.4.1-.7.2-1 .1-.3.4-.6.6-.8.3-.2.6-.4 1-.5.4-.1.8-.2 1.2-.2.5 0 1 .1 1.4.2.4.1.7.3 1 .6.3.2.5.5.6.9.1.3.2.7.2 1v.7h-1.1v-.5c0-.3-.1-.6-.2-.8s-.3-.4-.5-.6c-.2-.1-.4-.3-.7-.3s-.5-.1-.8-.1c-.3 0-.5 0-.7.1l-.6.3c-.2.1-.3.3-.4.4-.1.2-.2.4-.2.6v.1c0 .3.1.5.2.6.1.2.3.3.5.5s.5.2.8.3c.3.1.7.2 1.1.2 1 .1 1.7.4 2.1.8.5.4.7 1 .7 1.7v.2c0 .4-.1.7-.2 1.1-.1.3-.3.6-.6.8-.3.2-.6.4-1 .5-.4.1-.8.2-1.4.2-.6 0-1.1-.1-1.5-.3-.4-.2-.8-.4-1.1-.7s-.5-.7-.7-1.1c-.2-.4-.2-.8-.2-1.3v-.4h1zM98.9 36.8v-.3c0-.5.1-.9.2-1.3.2-.4.4-.7.7-1 .3-.3.6-.5 1-.7.4-.2.8-.2 1.3-.2s1 .1 1.4.3c.4.2.7.4 1 .7.2.3.4.6.5.9s.2.7.2.9v.8H100c0 .6.2 1.2.6 1.6s.9.6 1.6.6c.3 0 .6 0 .8-.1l.6-.3c.2-.1.3-.3.4-.4.1-.2.2-.3.2-.5l1 .3c-.2.6-.5 1.1-1 1.5-.5.4-1.2.6-2 .6-.5 0-.9-.1-1.3-.2-.4-.2-.7-.4-1-.7-.3-.3-.5-.6-.7-1.1s-.3-.9-.3-1.4zm1-.7h4.2c0-.3-.1-.5-.2-.8s-.3-.4-.5-.6c-.2-.2-.4-.3-.6-.4s-.5-.1-.7-.1c-.3 0-.6 0-.8.1-.2.1-.5.2-.7.4-.2.2-.3.4-.5.6-.1.3-.1.6-.2.8zM106 33.5h2v-2.7h1v2.7h2.5v.9H109v4.2c0 .3.1.4.4.4h1.8v1H109c-.3 0-.5-.1-.7-.3-.2-.2-.3-.4-.3-.7v-4.5h-2v-1zM113.1 33.5h2v-2.7h1v2.7h2.5v.9h-2.5v4.2c0 .3.1.4.4.4h1.8v1h-2.2c-.3 0-.5-.1-.7-.3-.2-.2-.3-.4-.3-.7v-4.5h-2v-1zM119.8 36.8v-.2c0-.5.1-1 .2-1.4.2-.4.4-.8.6-1s.6-.5 1-.6c.4-.1.8-.2 1.2-.2.4 0 .8.1 1.2.3.4.2.6.5.9.9h.2v-1h1v5.1c0 .3.1.4.4.4h.3v.9h-.8c-.3 0-.5-.1-.7-.3-.2-.2-.3-.4-.3-.7v-.1h-.2c-.2.4-.5.8-.9 1-.4.2-.8.3-1.2.3-.4 0-.8-.1-1.2-.2-.4-.1-.7-.4-1-.6s-.5-.6-.6-1-.1-1-.1-1.6zm1.1-.2v.2c0 .7.2 1.3.6 1.7.4.4.9.6 1.5.6.3 0 .6-.1.8-.2.3-.1.5-.3.7-.5.2-.2.3-.5.4-.7s.2-.6.2-1v-.2c0-.3-.1-.7-.2-1s-.2-.5-.4-.7c-.2-.2-.4-.4-.7-.5-.3-.1-.5-.2-.8-.2-.3 0-.6.1-.8.2-.3.1-.5.3-.7.5-.2.2-.3.5-.4.7-.2.5-.2.8-.2 1.1zM127.2 33.5h2v-2.7h1v2.7h2.5v.9h-2.5v4.2c0 .3.1.4.4.4h1.8v1h-2.2c-.3 0-.5-.1-.7-.3-.2-.2-.3-.4-.3-.7v-4.5h-2v-1zM142.2 33.9c0-.4.1-.8.2-1.2.1-.4.3-.7.6-1 .3-.3.6-.5 1-.7s.9-.3 1.4-.3c.5 0 1 .1 1.4.2.4.2.7.4 1 .6s.5.6.6.9c.1.3.2.7.2 1v.2c0 .7-.2 1.3-.7 1.8-.4.5-1.1.8-2.1 1-.8.2-1.4.4-1.8.7s-.6.7-.6 1.3v.6h5.1v1h-6.2v-1.6c0-.4.1-.8.2-1.1.1-.3.3-.6.6-.8l.9-.6c.4-.1.8-.3 1.2-.4.8-.2 1.3-.4 1.7-.7.3-.3.5-.7.5-1.2v-.1c0-.2 0-.5-.1-.7-.1-.2-.2-.4-.4-.6s-.4-.3-.6-.4c-.3-.1-.6-.2-.9-.2-.7 0-1.2.2-1.6.6-.4.4-.6 1-.6 1.6v.6h-1.1v-.5zM151.1 31.6c.6-.7 1.4-1 2.4-1s1.8.3 2.4 1c.6.7.8 1.6.8 2.7v2c0 1.2-.3 2.1-.8 2.8-.6.6-1.4 1-2.4 1s-1.8-.3-2.4-1-.8-1.6-.8-2.8v-2c0-1.1.2-2 .8-2.7zm.3 2.9v1.9c0 .9.2 1.6.5 2.1.4.5.9.7 1.6.7.7 0 1.2-.2 1.6-.7s.5-1.2.5-2.1v-1.9c0-.4 0-.8-.1-1.1s-.2-.6-.4-.9c-.2-.2-.4-.4-.7-.6-.3-.1-.6-.2-.9-.2-.4 0-.7.1-.9.2-.3.1-.5.3-.7.6-.2.2-.3.5-.4.9s-.1.7-.1 1.1zM158.5 33.9c0-.4.1-.8.2-1.2.1-.4.3-.7.6-1 .3-.3.6-.5 1-.7s.9-.3 1.4-.3c.5 0 1 .1 1.4.2.4.2.7.4 1 .6s.5.6.6.9c.1.3.2.7.2 1v.2c0 .7-.2 1.3-.7 1.8-.4.5-1.1.8-2.1 1-.8.2-1.4.4-1.8.7s-.6.7-.6 1.3v.6h5.1v1h-6.2v-1.6c0-.4.1-.8.2-1.1.1-.3.3-.6.6-.8l.9-.6c.4-.1.8-.3 1.2-.4.8-.2 1.3-.4 1.7-.7.3-.3.5-.7.5-1.2v-.1c0-.2 0-.5-.1-.7-.1-.2-.2-.4-.4-.6s-.4-.3-.6-.4c-.3-.1-.6-.2-.9-.2-.7 0-1.2.2-1.6.6-.4.4-.6 1-.6 1.6v.6h-1.1v-.5zM167.4 31.6c.6-.7 1.4-1 2.4-1s1.8.3 2.4 1c.6.7.8 1.6.8 2.7v2c0 1.2-.3 2.1-.8 2.8-.6.6-1.4 1-2.4 1s-1.8-.3-2.4-1-.8-1.6-.8-2.8v-2c0-1.1.3-2 .8-2.7zm.3 2.9v1.9c0 .9.2 1.6.5 2.1.4.5.9.7 1.6.7.7 0 1.2-.2 1.6-.7s.5-1.2.5-2.1v-1.9c0-.4 0-.8-.1-1.1s-.2-.6-.4-.9c-.2-.2-.4-.4-.7-.6-.3-.1-.6-.2-.9-.2-.4 0-.7.1-.9.2-.3.1-.5.3-.7.6-.2.2-.3.5-.4.9s-.1.7-.1 1.1z"/></svg>