<svg xmlns="http://www.w3.org/2000/svg" viewBox="0 0 611.83 304.83"><defs><style>.cls-1{fill:#0005df}.cls-6{fill:#0c0c0c}</style></defs><path class="cls-1" d="M45.52 159.65A41.72 41.72 0 0148.28 144a34.64 34.64 0 017.41-11.61 31.13 31.13 0 0110.88-7.19 35.72 35.72 0 0113.21-2.46A30.28 30.28 0 0193.65 126a22.33 22.33 0 019.94 10.09h1.74v-40.9h11.33v101.62h-11.33v-11h-1.74a21 21 0 01-4.43 5.8 26.21 26.21 0 01-5.8 4.07 28.67 28.67 0 01-6.61 2.32 30 30 0 01-6.68.8 36.28 36.28 0 01-13.5-2.47 31.73 31.73 0 01-18.36-18.65A43.19 43.19 0 0145.52 162zM59 172.86a23.33 23.33 0 005 8.2 22.46 22.46 0 007.62 5.23 24.7 24.7 0 009.58 1.81 23.44 23.44 0 009.44-1.89 22.71 22.71 0 007.62-5.37 25.48 25.48 0 005.16-8.35 29.8 29.8 0 001.88-10.81v-1.74a29.42 29.42 0 00-1.88-10.67 25.59 25.59 0 00-5.16-8.35 23.39 23.39 0 00-7.69-5.44 22.85 22.85 0 00-9.37-2 24.11 24.11 0 00-9.5 1.88 22.46 22.46 0 00-7.7 5.38 24.89 24.89 0 00-5 8.31 29.7 29.7 0 00-1.81 10.6V162A29.74 29.74 0 0059 172.86zM129.57 161.68v-3.48a36.71 36.71 0 012.69-14.09 33.43 33.43 0 017.48-11.25 35 35 0 0111.25-7.4 36.08 36.08 0 0114-2.68 33.54 33.54 0 0115.32 3.22 34.18 34.18 0 0110.6 8.06A33.37 33.37 0 01199 155v9.29h-58.1q.43 10.76 6.68 17.28T165 188.1a30.41 30.41 0 008.86-1.16 20.44 20.44 0 006.46-3.2 17.31 17.31 0 004.35-4.71 26.64 26.64 0 002.69-5.74l10.74 2.91a31.79 31.79 0 01-11.25 16.33q-8.21 6.32-22.14 6.31a36.51 36.51 0 01-14.15-2.68 31.61 31.61 0 01-11.1-7.63 35.18 35.18 0 01-7.26-11.75 42 42 0 01-2.63-15.1zm11.62-7.84h46.45a20.7 20.7 0 00-7.33-14.84 23.54 23.54 0 00-7.11-4 23.84 23.84 0 00-8.21-1.45 25.75 25.75 0 00-8.92 1.52 22.52 22.52 0 00-12.34 10.74 23.61 23.61 0 00-2.54 8.03zM218.56 124.81l22.07 66.77h1.74l22.06-66.77h13.36l-25.12 72h-22.35l-25.11-72zM309.47 124.81v-18.29a11.16 11.16 0 013.12-8.13 10.78 10.78 0 018.06-3.2h28.45v10.46h-24.39q-3.91 0-3.92 4.35v14.81h30v10.45h-30v61.55h-11.32v-61.55h-22.21v-10.45zM354.5 161.68v-3.48a36.71 36.71 0 012.69-14.09 33.55 33.55 0 017.47-11.25 35.21 35.21 0 0111.25-7.4 36.16 36.16 0 0114-2.68 33.57 33.57 0 0115.33 3.22 34 34 0 0110.59 8.06 31.7 31.7 0 016.1 10.45 32 32 0 012 10.45v9.29h-58.1q.44 10.76 6.67 17.28t17.42 6.53a30.41 30.41 0 008.86-1.16 20.55 20.55 0 006.46-3.2 17.31 17.31 0 004.35-4.71 27.13 27.13 0 002.69-5.74L423 176.2a31.79 31.79 0 01-11.25 16.33q-8.2 6.32-22.14 6.31a36.47 36.47 0 01-14.15-2.68 31.74 31.74 0 01-11.11-7.63 35.32 35.32 0 01-7.25-11.75 41.73 41.73 0 01-2.6-15.1zm11.62-7.84h46.45a20.7 20.7 0 00-7.33-14.84 23.47 23.47 0 00-7.12-4.06 23.74 23.74 0 00-8.2-1.45A25.8 25.8 0 00381 135a23 23 0 00-7.25 4.28 22.61 22.61 0 00-5.08 6.46 23.61 23.61 0 00-2.55 8.1zM446.39 170.1a19.23 19.23 0 006.38 13.28q5.67 5 15.1 5 8 0 12.85-3.12a9.87 9.87 0 004.86-8.78q0-6.11-4.79-8.71t-15.53-3.34q-12.5-.87-19.16-5.81t-6.68-14.37v-.87a17.85 17.85 0 012.18-8.93 19.72 19.72 0 015.88-6.46 26.91 26.91 0 018.34-3.92 35.82 35.82 0 019.73-1.3 36.5 36.5 0 0112.48 2 28.88 28.88 0 019 5.09 22 22 0 015.59 7.18 27.69 27.69 0 012.54 8.13l-10.74 2.61a15.36 15.36 0 00-5.59-10.88q-4.86-3.93-12.7-3.92a25.85 25.85 0 00-5.88.65 17.29 17.29 0 00-5 2 10.72 10.72 0 00-3.48 3.27 8 8 0 00-1.31 4.57 8.85 8.85 0 004.43 8q4.42 2.76 16.19 3.63 12.63 1 19.23 6t6.6 14.59v.87a20.4 20.4 0 01-2.1 9.36 20.77 20.77 0 01-5.81 7 26 26 0 01-9 4.43 41.84 41.84 0 01-11.54 1.52 41.32 41.32 0 01-14.46-2.28 29.85 29.85 0 01-10-6 24.71 24.71 0 01-6-8.42 28 28 0 01-2.32-9.51zM504.46 124.81h22.65V95.19h11.32v29.62h27.87v10.45h-27.87V182q0 4.37 3.92 4.36h20.47v10.45h-24.53a10.77 10.77 0 01-8.06-3.19 11.16 11.16 0 01-3.12-8.13v-50.23h-22.65zM227.66 259a18.43 18.43 0 011.11-6.36 16 16 0 013.25-5.39 15.48 15.48 0 015.32-3.74 18.26 18.26 0 017.33-1.38 19.28 19.28 0 017.33 1.28 15.24 15.24 0 015.18 3.39 13.54 13.54 0 013.08 4.77 15.42 15.42 0 011 5.42v1.25a13.69 13.69 0 01-3.46 9.43q-3.45 3.92-11.06 5.57c-4.42 1-7.67 2.24-9.74 3.84a8.18 8.18 0 00-3.11 6.94v2.08h26.95v5.39h-32.76v-8.3a14.07 14.07 0 011.1-5.77 12.21 12.21 0 013.15-4.22 17.65 17.65 0 014.94-2.93 41.86 41.86 0 016.57-2q6.15-1.38 8.88-3.94a8.27 8.27 0 002.73-6.29v-.41a11 11 0 00-.62-3.67 9.15 9.15 0 00-5.29-5.56 12.36 12.36 0 00-4.87-.87c-3.55 0-6.3 1.09-8.26 3.25a12.4 12.4 0 00-2.94 8.64v3h-5.81zM272.8 247.28q4.5-5.19 12.51-5.19t12.52 5.19q4.49 5.17 4.49 14.58v10.79q0 9.68-4.49 14.72t-12.52 5.05q-8 0-12.51-5.05t-4.49-14.72v-10.79q0-9.39 4.49-14.58zm1.32 15v10q0 7.13 2.8 11t8.39 3.9q5.61 0 8.4-3.9t2.8-11v-10a24.65 24.65 0 00-.69-6 13.59 13.59 0 00-2.11-4.7 10 10 0 00-3.52-3.08 10.33 10.33 0 00-4.88-1.11 10.22 10.22 0 00-4.9 1.11 10 10 0 00-3.49 3.08 13.59 13.59 0 00-2.11 4.7 24.65 24.65 0 00-.69 6zM309.51 259a18.66 18.66 0 011.1-6.36 16 16 0 013.25-5.39 15.43 15.43 0 015.33-3.74 18.21 18.21 0 017.32-1.38 19.25 19.25 0 017.33 1.28 15.24 15.24 0 015.18 3.39 13.4 13.4 0 013.08 4.77 15.2 15.2 0 011 5.42v1.25a13.73 13.73 0 01-3.45 9.43q-3.47 3.92-11.06 5.57c-4.43 1-7.68 2.24-9.75 3.84a8.21 8.21 0 00-3.11 6.94v2.08h27v5.39h-32.81v-8.3a13.91 13.91 0 011.11-5.77 12.18 12.18 0 013.14-4.22 17.57 17.57 0 014.95-2.93 41.4 41.4 0 016.56-2q6.15-1.38 8.89-3.94a8.27 8.27 0 002.73-6.33v-.41a11 11 0 00-.63-3.67 9.17 9.17 0 00-5.28-5.56 12.41 12.41 0 00-4.88-.87c-3.55 0-6.3 1.09-8.26 3.25a12.39 12.39 0 00-2.93 8.64v3h-5.81zM354.65 247.28q4.49-5.19 12.51-5.19t12.51 5.19q4.5 5.17 4.49 14.58v10.79q0 9.68-4.49 14.72t-12.51 5.05q-8 0-12.51-5.05t-4.5-14.72v-10.79q0-9.39 4.5-14.58zm1.31 15v10q0 7.13 2.8 11t8.4 3.9q5.59 0 8.4-3.9t2.8-11v-10a24.65 24.65 0 00-.69-6 14 14 0 00-2.11-4.7 10 10 0 00-3.53-3.08 11.33 11.33 0 00-9.78 0 10.08 10.08 0 00-3.49 3.08 13.59 13.59 0 00-2.11 4.7 24.65 24.65 0 00-.65 6z"/><path d="M92.48 35.06l15.14-8.74a7.45 7.45 0 00-7.45-12.9L74 28.52z" fill="#ea4335"/><path d="M103.89 57.53a7.45 7.45 0 003.73-13.9L81.45 28.52A7.45 7.45 0 0074 41.43l26.17 15.1a7.37 7.37 0 003.72 1z" fill="#4285f4"/><path d="M129.91 57.53a7.37 7.37 0 003.72-1l26.17-15.1-18.24-6.68-15.38 8.88a7.45 7.45 0 003.73 13.9z" fill="#fbbc04"/><path d="M156.06 42.43a7.46 7.46 0 003.74-13.91l-26.17-15.1a7.45 7.45 0 10-7.45 12.9l26.17 15.11a7.36 7.36 0 003.71 1z" fill="#0f9d58"/><path class="cls-6" d="M193.11 49.94a16.69 16.69 0 01-6.2-6.2 17.72 17.72 0 010-17.46 16.87 16.87 0 0114.75-8.45 18.22 18.22 0 016.82 1.28 13.77 13.77 0 015.26 3.63l-2.8 2.81a10.08 10.08 0 00-4-3 13.6 13.6 0 00-11.74.65 12.72 12.72 0 00-4.82 4.8 13.56 13.56 0 00-1.82 7 13.51 13.51 0 001.82 7.05 12.68 12.68 0 004.85 4.74 14.23 14.23 0 0012 .64 12.4 12.4 0 003.84-2.73 10.18 10.18 0 001.93-3.1 13.92 13.92 0 00.92-4h-12.17V34h15.81a13.84 13.84 0 01.23 2.38 18.53 18.53 0 01-1 5.91 13 13 0 01-3.08 5q-4.55 4.92-12.08 4.92a16.74 16.74 0 01-8.52-2.27zM222.66 18.56h9.92a17.92 17.92 0 018.82 2.09 14.42 14.42 0 015.79 5.82 17.58 17.58 0 012 8.54 17.59 17.59 0 01-2 8.55 14.39 14.39 0 01-5.79 5.81 17.92 17.92 0 01-8.82 2.09h-9.92zm9.92 29.18q5.83 0 9.26-3.35t3.42-9.39q0-6-3.42-9.37t-9.26-3.36h-6.06v25.47zM260.93 49.94a16.69 16.69 0 01-6.2-6.2 17 17 0 01-2.3-8.73 17 17 0 012.3-8.73 16.87 16.87 0 0114.75-8.45 18.22 18.22 0 016.82 1.28 13.77 13.77 0 015.26 3.63l-2.8 2.81a10.15 10.15 0 00-4-3 13.6 13.6 0 00-11.74.65 12.65 12.65 0 00-4.82 4.8 13.56 13.56 0 00-1.82 7 13.51 13.51 0 001.82 7.05 12.73 12.73 0 004.8 4.75 14.25 14.25 0 0012 .64 12.64 12.64 0 003.84-2.73 10.16 10.16 0 001.92-3.1 13.6 13.6 0 00.92-4h-12.11V34h15.8a12.91 12.91 0 01.23 2.38 18.52 18.52 0 01-1 5.91 13 13 0 01-3.08 5Q277 52.2 269.48 52.2a16.72 16.72 0 01-8.55-2.26z"/><path d="M305.59 50.33a16.35 16.35 0 01-6.16-6.22 17.46 17.46 0 01-2.25-8.8 17.46 17.46 0 012.25-8.8 16.28 16.28 0 016.16-6.22 17.17 17.17 0 018.74-2.29 16.16 16.16 0 016.76 1.39 15.14 15.14 0 015.34 4l-2.82 2.72a12.19 12.19 0 00-4.13-3.32 11.88 11.88 0 00-5.15-1.07 13.19 13.19 0 00-6.61 1.69 12.49 12.49 0 00-4.78 4.76 13.85 13.85 0 00-1.78 7.09 13.85 13.85 0 001.78 7.09 12.49 12.49 0 004.78 4.76 13.19 13.19 0 006.61 1.69 12.92 12.92 0 0010.2-5l2.87 2.77a16.15 16.15 0 01-5.66 4.43 18 18 0 01-16.15-.66zM334.24 51.57a7.38 7.38 0 01-4.24-6.84 6.87 6.87 0 012.82-5.84 11.56 11.56 0 017.11-2.1 16 16 0 013.95.46 10.34 10.34 0 012.8 1.06v-1.43a5.32 5.32 0 00-1.85-4.23 6.9 6.9 0 00-4.67-1.59 7.87 7.87 0 00-3.62.85 6.61 6.61 0 00-2.66 2.38l-3-2.21a9.33 9.33 0 013.84-3.33 12.09 12.09 0 015.4-1.2 10.68 10.68 0 017.53 2.52 8.85 8.85 0 012.73 6.86v14.92h-3.74v-3.37h-.19a8.4 8.4 0 01-3.05 2.91 8.81 8.81 0 01-4.57 1.2 10.13 10.13 0 01-4.59-1.02zm8.68-3.46a7.76 7.76 0 002.73-2.73 7.15 7.15 0 001-3.74 9.85 9.85 0 00-2.73-1.2 12.34 12.34 0 00-3.42-.46 7.52 7.52 0 00-4.87 1.34 4.23 4.23 0 00-1.63 3.46 3.84 3.84 0 001.48 3.14 5.73 5.73 0 003.74 1.2 7.16 7.16 0 003.7-1.01zM357.52 50.81a9.74 9.74 0 01-3.6-4.55l3.51-1.57A7.15 7.15 0 00360 48a6.74 6.74 0 003.81 1.15 7.51 7.51 0 003.79-.9 2.89 2.89 0 00.33-4.94 11.68 11.68 0 00-3.93-1.58l-2.83-.73a10.34 10.34 0 01-4.62-2.35 5.94 5.94 0 01-.57-7.88 7.78 7.78 0 013.25-2.38 11.59 11.59 0 014.39-.83 11.11 11.11 0 015.52 1.34 7.58 7.58 0 013.45 3.74l-3.42 1.57c-1.05-2.09-2.92-3.14-5.59-3.14a6.32 6.32 0 00-3.4.9 2.64 2.64 0 00-1.45 2.29 2.55 2.55 0 001 2.1 8.15 8.15 0 003.05 1.32l3.42.87a11.32 11.32 0 015.22 2.61 5.74 5.74 0 011.76 4.23 6.12 6.12 0 01-1.25 3.81 7.84 7.84 0 01-3.38 2.52 12.27 12.27 0 01-4.71.88 10.77 10.77 0 01-6.32-1.79zM380.62 51.57a7.69 7.69 0 01-3.14-2.79 7.51 7.51 0 01-1.11-4.05 6.87 6.87 0 012.82-5.84 11.59 11.59 0 017.12-2.1 16 16 0 013.95.46 10.25 10.25 0 012.79 1.06v-1.43a5.29 5.29 0 00-1.85-4.23 6.88 6.88 0 00-4.66-1.59 7.88 7.88 0 00-3.63.85 6.74 6.74 0 00-2.66 2.38l-2.95-2.21a9.37 9.37 0 013.83-3.33 12.13 12.13 0 015.41-1.2 10.68 10.68 0 017.53 2.52 8.85 8.85 0 012.72 6.86v14.92h-3.74v-3.37h-.18a8.48 8.48 0 01-3.05 2.91 8.85 8.85 0 01-4.58 1.2 10.19 10.19 0 01-4.62-1.02zm8.69-3.46a7.76 7.76 0 002.69-2.73 7.24 7.24 0 001-3.74 9.91 9.91 0 00-2.72-1.2 12.34 12.34 0 00-3.42-.46 7.55 7.55 0 00-4.86 1.34 4.26 4.26 0 00-1.64 3.46 3.84 3.84 0 001.48 3.14 5.75 5.75 0 003.74 1.2 7.17 7.17 0 003.73-1.01zM409.38 51.36a8.53 8.53 0 01-3.21-3H406v3.47h-3.74V18.77h3.92v9.75L406 31.8h.18a8.56 8.56 0 013.21-3 9.68 9.68 0 014.83-1.22 10.6 10.6 0 015.78 1.58 11.38 11.38 0 014 4.49 13.86 13.86 0 011.48 6.42 13.8 13.8 0 01-1.48 6.44 11.36 11.36 0 01-4 4.49 10.53 10.53 0 01-5.75 1.62 9.59 9.59 0 01-4.87-1.26zm8.25-3.44a7.88 7.88 0 002.87-3.14 11 11 0 000-9.43 7.94 7.94 0 00-2.87-3.14 7.21 7.21 0 00-7.69 0 8.17 8.17 0 00-2.87 3.14 9.93 9.93 0 00-1.07 4.72 9.89 9.89 0 001.08 4.71 8.1 8.1 0 002.87 3.14 7.21 7.21 0 007.69 0zM429.83 18.77h3.93v33.08h-3.93zM442.26 51.57a7.38 7.38 0 01-4.26-6.84 6.89 6.89 0 012.81-5.84 11.61 11.61 0 017.12-2.1 16 16 0 013.95.46 10.34 10.34 0 012.8 1.06v-1.43a5.32 5.32 0 00-1.85-4.23 6.92 6.92 0 00-4.67-1.59 7.94 7.94 0 00-3.63.85 6.65 6.65 0 00-2.65 2.38l-3-2.21a9.37 9.37 0 013.83-3.33 12.16 12.16 0 015.41-1.2 10.68 10.68 0 017.53 2.52 8.85 8.85 0 012.73 6.86v14.92h-3.74v-3.37h-.19a8.4 8.4 0 01-3.05 2.91 8.84 8.84 0 01-4.57 1.2 10.13 10.13 0 01-4.57-1.02zm8.68-3.46a7.76 7.76 0 002.73-2.73 7.15 7.15 0 001-3.74 9.85 9.85 0 00-2.73-1.2 12.34 12.34 0 00-3.42-.46 7.5 7.5 0 00-4.87 1.34 4.23 4.23 0 00-1.65 3.46 3.86 3.86 0 001.47 3.14 5.77 5.77 0 003.75 1.2 7.16 7.16 0 003.72-1.01zM463.88 28.29h3.74v3.46h.19a7.94 7.94 0 013.09-3 9 9 0 014.53-1.22 8.3 8.3 0 016.49 2.47 9.66 9.66 0 012.24 6.72v15.13h-3.93V37.34q0-3.27-1.57-4.76a6 6 0 00-4.29-1.48 5.73 5.73 0 00-3.4 1.07 7.14 7.14 0 00-2.33 2.83 8.24 8.24 0 00-.83 3.63v13.22h-3.93zM494.32 51a11.52 11.52 0 01-4.25-4.48 14.28 14.28 0 010-12.82 11.35 11.35 0 014.25-4.49 11.91 11.91 0 016.15-1.61 11.12 11.12 0 016.44 1.78 9.65 9.65 0 013.72 4.73l-3.55 1.48a6.91 6.91 0 00-2.61-3.3 7.45 7.45 0 00-4.18-1.14 7.17 7.17 0 00-3.89 1.14 8.17 8.17 0 00-2.88 3.16 10.53 10.53 0 000 9.33 8.2 8.2 0 002.88 3.17 7.24 7.24 0 003.89 1.05 7.77 7.77 0 004.29-1.15 6.92 6.92 0 002.68-3.28l3.51 1.47a10.28 10.28 0 01-3.86 4.72 11.19 11.19 0 01-6.44 1.8 11.74 11.74 0 01-6.15-1.56zM517.7 51.57a7.69 7.69 0 01-3.14-2.79 7.51 7.51 0 01-1.11-4.05 6.87 6.87 0 012.82-5.84 11.59 11.59 0 017.12-2.1 16 16 0 014 .46 10.39 10.39 0 012.79 1.06v-1.43a5.32 5.32 0 00-1.85-4.23 6.88 6.88 0 00-4.66-1.59 7.88 7.88 0 00-3.63.85 6.74 6.74 0 00-2.66 2.38l-3-2.21a9.37 9.37 0 013.83-3.33 12.13 12.13 0 015.41-1.2 10.68 10.68 0 017.53 2.52 8.85 8.85 0 012.72 6.86v14.92h-3.74v-3.37H530a8.48 8.48 0 01-3.05 2.91 8.85 8.85 0 01-4.58 1.2 10.19 10.19 0 01-4.67-1.02zm8.69-3.46a7.65 7.65 0 002.72-2.73 7.15 7.15 0 001-3.74 9.91 9.91 0 00-2.72-1.2A12.34 12.34 0 00524 40a7.55 7.55 0 00-4.88 1.34 4.26 4.26 0 00-1.64 3.46 3.84 3.84 0 001.52 3.12 5.75 5.75 0 003.74 1.2 7.17 7.17 0 003.65-1.01z"/></svg>