<svg xmlns="http://www.w3.org/2000/svg" overflow="visible" viewBox="0 0 545.3 188.9">
<style>.st0{fill:currentColor;}.st5{fill:currentColor;}</style>
<path
  class="st0" d="M79.6 109c0-4.2.7-8 2-11.3 1.3-3.3 3.1-6.1 5.4-8.4 2.2-2.3 4.9-4 7.9-5.2 3-1.2 6.2-1.8 9.6-1.8 3.6 0 6.9.8 10 2.4 3.1 1.6 5.5 4 7.2 7.3h1.3V62.4h8.2v73.5H123v-8h-1.3c-.8 1.6-1.9 3-3.2 4.2-1.3 1.2-2.7 2.2-4.2 2.9-1.5.8-3.1 1.3-4.8 1.7-1.7.4-3.3.6-4.8.6-3.5 0-6.8-.6-9.8-1.8-3-1.2-5.7-2.9-7.9-5.1-2.3-2.2-4.1-5-5.4-8.3-1.3-3.3-1.9-7.1-1.9-11.4V109zm9.8 9.5c.8 2.3 2 4.3 3.6 5.9 1.6 1.6 3.4 2.9 5.5 3.8 2.1.9 4.4 1.3 6.9 1.3 2.4 0 4.7-.5 6.8-1.4 2.1-.9 3.9-2.2 5.5-3.9 1.6-1.7 2.8-3.7 3.7-6 .9-2.3 1.4-5 1.4-7.8v-1.3c0-2.8-.5-5.4-1.4-7.7-.9-2.3-2.2-4.4-3.7-6-1.6-1.7-3.4-3-5.6-3.9-2.1-.9-4.4-1.4-6.8-1.4-2.5 0-4.7.5-6.9 1.4-2.1.9-4 2.2-5.6 3.9-1.6 1.7-2.8 3.7-3.7 6-.9 2.3-1.3 4.9-1.3 7.7v1.7c.2 2.8.7 5.4 1.6 7.7zM140.4 110.4v-2.5c0-3.6.6-7 1.9-10.2 1.3-3.1 3.1-5.9 5.4-8.1 2.3-2.3 5-4.1 8.1-5.4 3.1-1.3 6.5-1.9 10.1-1.9 4.3 0 8 .8 11.1 2.4 3.1 1.6 5.7 3.5 7.7 5.8s3.5 4.8 4.4 7.6c.9 2.7 1.4 5.2 1.4 7.6v6.7h-42c.2 5.2 1.8 9.3 4.8 12.5 3 3.2 7.2 4.7 12.6 4.7 2.4 0 4.6-.3 6.4-.8 1.8-.6 3.4-1.3 4.7-2.3 1.3-1 2.3-2.1 3.1-3.4.8-1.3 1.5-2.7 1.9-4.1l7.8 2.1c-1.5 4.8-4.2 8.8-8.1 11.8-4 3-9.3 4.6-16 4.6-3.7 0-7.1-.6-10.2-1.9-3.1-1.3-5.8-3.1-8-5.5s-4-5.2-5.2-8.5c-1.3-3.5-1.9-7.2-1.9-11.2zm8.4-5.6h33.6c-.1-2.2-.7-4.3-1.6-6.1-.9-1.8-2.2-3.4-3.7-4.6-1.5-1.3-3.2-2.2-5.1-2.9-1.9-.7-3.9-1-5.9-1-2.3 0-4.5.4-6.5 1.1-2 .7-3.7 1.8-5.2 3.1s-2.7 2.9-3.7 4.7-1.6 3.6-1.9 5.7zM204.8 83.8l16 48.3h1.3l16-48.3h9.7l-18.2 52.1h-16.2l-18.2-52.1h9.6zM270.5 83.8V70.5c0-2.4.8-4.3 2.3-5.9 1.5-1.5 3.4-2.3 5.8-2.3h20.6v7.6h-17.6c-1.9 0-2.8 1.1-2.8 3.2v10.7h21.7v7.6h-21.7v44.5h-8.2V91.3h-16.1v-7.6h16zM303.1 110.4v-2.5c0-3.6.6-7 1.9-10.2 1.3-3.1 3.1-5.9 5.4-8.1 2.3-2.3 5-4.1 8.1-5.4 3.1-1.3 6.5-1.9 10.1-1.9 4.3 0 8 .8 11.1 2.4 3.1 1.6 5.7 3.5 7.7 5.8s3.5 4.8 4.4 7.6c.9 2.7 1.4 5.2 1.4 7.6v6.7h-42c.2 5.2 1.8 9.3 4.8 12.5 3 3.2 7.2 4.7 12.6 4.7 2.4 0 4.6-.3 6.4-.8 1.8-.6 3.4-1.3 4.7-2.3 1.3-1 2.3-2.1 3.1-3.4.8-1.3 1.5-2.7 1.9-4.1l7.8 2.1c-1.5 4.8-4.2 8.8-8.1 11.8-4 3-9.3 4.6-16 4.6-3.7 0-7.1-.6-10.2-1.9-3.1-1.3-5.8-3.1-8-5.5s-4-5.2-5.2-8.5c-1.3-3.5-1.9-7.2-1.9-11.2zm8.4-5.6h33.6c-.1-2.2-.7-4.3-1.6-6.1-.9-1.8-2.2-3.4-3.7-4.6-1.5-1.3-3.2-2.2-5.1-2.9-1.9-.7-3.9-1-5.9-1-2.3 0-4.5.4-6.5 1.1-2 .7-3.7 1.8-5.2 3.1s-2.7 2.9-3.7 4.7-1.6 3.6-1.9 5.7zM369.6 116.5c.3 4 1.9 7.2 4.6 9.6 2.7 2.4 6.4 3.6 10.9 3.6 3.8 0 6.9-.8 9.3-2.3 2.3-1.5 3.5-3.6 3.5-6.4 0-2.9-1.2-5-3.5-6.3s-6.1-2.1-11.2-2.4c-6-.4-10.6-1.8-13.9-4.2-3.2-2.4-4.8-5.8-4.8-10.4v-.6c0-2.5.5-4.6 1.6-6.5 1.1-1.9 2.5-3.4 4.3-4.7 1.8-1.3 3.8-2.2 6-2.8 2.2-.6 4.6-.9 7-.9 3.4 0 6.4.5 9 1.4 2.6.9 4.8 2.2 6.5 3.7 1.7 1.5 3.1 3.2 4 5.2.9 2 1.6 3.9 1.8 5.9l-7.8 1.9c-.4-3.4-1.7-6-4-7.9-2.3-1.9-5.4-2.8-9.2-2.8-1.5 0-2.9.2-4.3.5s-2.6.8-3.6 1.4c-1 .6-1.9 1.4-2.5 2.4-.6.9-.9 2-.9 3.3 0 2.5 1.1 4.4 3.2 5.8 2.1 1.3 6 2.2 11.7 2.6 6.1.5 10.7 1.9 13.9 4.4 3.2 2.4 4.8 5.9 4.8 10.6v.6c0 2.5-.5 4.8-1.5 6.8s-2.4 3.7-4.2 5.1c-1.8 1.4-4 2.5-6.5 3.2-2.6.7-5.3 1.1-8.3 1.1-4.1 0-7.5-.5-10.4-1.6-2.9-1.1-5.3-2.5-7.2-4.3-1.9-1.8-3.4-3.8-4.4-6.1-1-2.3-1.5-4.6-1.7-6.9l7.8-2zM411.6 83.8H428V62.4h8.2v21.4h20.2v7.6h-20.2v33.8c0 2.1.9 3.2 2.8 3.2h14.8v7.6H436c-2.4 0-4.3-.8-5.8-2.3-1.5-1.5-2.3-3.5-2.3-5.9V91.3h-16.4v-7.5z"/>
  <path
    d="M193.4 16.7l11.2-6.5c2.6-1.5 3.5-4.9 2-7.5s-4.9-3.5-7.5-2l-19.3 11.2 13.6 4.8z" fill="#ea4335"/>
  <path
    d="M201.8 33.3c1.9 0 3.7-1 4.8-2.8 1.5-2.6.6-6-2-7.5l-19.3-11.1c-2.6-1.5-6-.6-7.5 2s-.6 6 2 7.5l19.3 11.1c.8.6 1.8.8 2.7.8z" fill="#4285f4"/>
  <path
    d="M221 33.3c.9 0 1.9-.2 2.7-.7L243 21.5l-13.5-4.9-11.2 6.4c-2.6 1.5-3.5 4.9-2 7.5 1 1.8 2.8 2.8 4.7 2.8z" fill="#fbbc04"/>
  <path
    d="M240.3 22.2c1.9 0 3.7-1 4.8-2.8 1.5-2.6.6-6-2-7.5L223.8.7c-2.6-1.5-6-.6-7.5 2s-.6 6 2 7.5l19.3 11.2c.9.5 1.8.8 2.7.8z" fill="#0f9d58"/>
  <path
  fill='black'
    d="M267.7 27.7c-1.9-1.1-3.4-2.6-4.6-4.6-1.1-1.9-1.7-4.1-1.7-6.4 0-2.4.6-4.5 1.7-6.4 1.1-1.9 2.7-3.5 4.6-4.6 1.9-1.1 4-1.7 6.3-1.7 1.8 0 3.5.3 5 .9 1.6.6 2.9 1.5 3.9 2.7l-2.1 2.1c-.8-.9-1.8-1.7-3-2.2-1.2-.5-2.5-.8-3.9-.8-1.7 0-3.3.4-4.8 1.2-1.5.8-2.7 2-3.6 3.5-.9 1.5-1.3 3.2-1.3 5.2s.4 3.7 1.3 5.2 2.1 2.7 3.6 3.5c1.5.8 3.1 1.2 4.8 1.2 1.6 0 3-.3 4.1-.8 1.1-.5 2-1.2 2.8-2 .6-.6 1.1-1.4 1.4-2.3.4-.9.6-1.9.7-3h-9v-2.7h11.7c.1.6.2 1.2.2 1.8 0 1.5-.2 2.9-.7 4.4-.5 1.4-1.2 2.7-2.3 3.7-2.2 2.4-5.2 3.6-8.9 3.6-2.2.2-4.3-.4-6.2-1.5zM289.5 4.5h7.3c2.5 0 4.7.5 6.5 1.5 1.9 1 3.3 2.5 4.3 4.3 1 1.8 1.5 3.9 1.5 6.3s-.5 4.5-1.5 6.3c-1 1.8-2.4 3.3-4.3 4.3s-4 1.5-6.5 1.5h-7.3V4.5zm7.3 21.6c2.9 0 5.1-.8 6.8-2.5 1.7-1.7 2.5-4 2.5-6.9 0-3-.8-5.3-2.5-6.9-1.7-1.7-4-2.5-6.8-2.5h-4.5v18.8h4.5zM317.7 27.7c-1.9-1.1-3.4-2.6-4.6-4.6-1.1-1.9-1.7-4.1-1.7-6.4 0-2.4.6-4.5 1.7-6.4 1.1-1.9 2.7-3.5 4.6-4.6 1.9-1.1 4-1.7 6.3-1.7 1.8 0 3.5.3 5 .9 1.6.6 2.9 1.5 3.9 2.7l-2.1 2.1c-.8-.9-1.8-1.7-3-2.2-1.2-.5-2.5-.8-3.9-.8-1.7 0-3.3.4-4.8 1.2-1.5.8-2.7 2-3.6 3.5-.9 1.5-1.3 3.2-1.3 5.2s.4 3.7 1.3 5.2 2.1 2.7 3.6 3.5c1.5.8 3.1 1.2 4.8 1.2 1.6 0 3-.3 4.1-.8 1.1-.5 2-1.2 2.8-2 .6-.6 1.1-1.4 1.4-2.3.4-.9.6-1.9.7-3h-9v-2.7h11.7c.1.6.2 1.2.2 1.8 0 1.5-.2 2.9-.7 4.4-.5 1.4-1.2 2.7-2.3 3.7-2.2 2.4-5.2 3.6-8.9 3.6-2.1.2-4.3-.4-6.2-1.5z"/>
<path
  class="st0"
  d="M2.7 162.1C4.5 160 7 159 10.1 159c1.6 0 3.1.3 4.4.8 1.3.5 2.3 1.3 3.2 2.2.8.9 1.5 2.1 1.9 3.3.4 1.3.7 2.6.7 4.1v.5h-3.5v-.5c0-.9-.2-1.8-.4-2.7-.3-.9-.7-1.6-1.2-2.3-.5-.7-1.2-1.2-2-1.6-.8-.4-1.8-.6-3-.6-2.2 0-3.9.8-5 2.4-1.1 1.6-1.7 3.7-1.7 6.4v5.9c0 2.8.6 5 1.7 6.5s2.8 2.3 5 2.3c1.2 0 2.2-.2 3-.6.8-.4 1.5-.9 2.1-1.6.5-.7.9-1.4 1.2-2.3.3-.9.4-1.8.4-2.7v-.5h3.5v.5c0 1.5-.2 2.8-.7 4.1-.4 1.3-1.1 2.4-1.9 3.3-.8.9-1.9 1.7-3.2 2.2-1.3.5-2.7.8-4.4.8-3.2 0-5.7-1-7.4-3-1.8-2-2.7-4.9-2.7-8.7v-6.4c-.1-3.8.8-6.6 2.6-8.7zM21.6 178.5v-.7c0-1.7.2-3.1.7-4.4.5-1.3 1.2-2.4 2-3.3.9-.9 1.9-1.6 3-2 1.2-.5 2.4-.7 3.7-.7 1.4 0 2.7.3 3.8.9 1.1.6 2 1.6 2.7 2.9h.5V168h3.2v16.2c0 .8.4 1.2 1.1 1.2h1v3h-2.2c-.9 0-1.7-.3-2.3-.9s-.9-1.4-.9-2.3v-.2h-.5c-.7 1.4-1.6 2.4-2.7 3s-2.4 1-3.7 1c-1.3 0-2.6-.2-3.7-.7-1.2-.5-2.2-1.1-3-2-.9-.9-1.5-2-2-3.3-.5-1.3-.7-2.8-.7-4.5zm3.2-.7v.7c0 2.3.6 4.1 1.8 5.4 1.2 1.3 2.8 2 4.7 2 1 0 1.8-.2 2.6-.5s1.5-.9 2.1-1.5c.6-.7 1-1.4 1.4-2.4.3-.9.5-1.9.5-3.1v-.5c0-1.1-.2-2.1-.5-3-.3-.9-.8-1.7-1.4-2.4s-1.3-1.2-2.1-1.5c-.8-.4-1.7-.6-2.6-.6-1 0-1.8.2-2.6.5-.8.4-1.5.9-2.1 1.5s-1 1.4-1.4 2.3c-.2 1-.4 2-.4 3.1zM48.5 180.8c.1 1.6.7 2.8 1.8 3.8 1.1.9 2.5 1.4 4.3 1.4 1.5 0 2.7-.3 3.6-.9.9-.6 1.4-1.4 1.4-2.5 0-1.2-.5-2-1.4-2.5-.9-.5-2.4-.8-4.4-.9-2.4-.2-4.2-.7-5.4-1.6s-1.9-2.3-1.9-4.1v-.2c0-1 .2-1.8.6-2.5.4-.7 1-1.3 1.7-1.8s1.5-.9 2.4-1.1c.9-.2 1.8-.4 2.8-.4 1.3 0 2.5.2 3.5.6 1 .4 1.9.8 2.5 1.4.7.6 1.2 1.3 1.6 2 .4.8.6 1.5.7 2.3l-3 .7c-.1-1.3-.7-2.3-1.6-3.1s-2.1-1.1-3.6-1.1c-.6 0-1.1.1-1.7.2s-1 .3-1.4.6c-.4.2-.7.6-1 .9-.2.4-.4.8-.4 1.3 0 1 .4 1.7 1.3 2.3.8.5 2.4.9 4.6 1 2.4.2 4.2.8 5.4 1.7 1.2.9 1.9 2.3 1.9 4.1v.2c0 1-.2 1.9-.6 2.6-.4.8-.9 1.4-1.6 2-.7.5-1.5 1-2.5 1.3-1 .3-2.1.4-3.3.4-1.6 0-3-.2-4.1-.6-1.1-.4-2.1-1-2.8-1.7s-1.3-1.5-1.7-2.4c-.4-.9-.6-1.8-.7-2.7l3-.7zM66.1 178.5v-.7c0-1.7.2-3.1.7-4.4.5-1.3 1.2-2.4 2-3.3.9-.9 1.9-1.6 3-2 1.2-.5 2.4-.7 3.7-.7 1.4 0 2.7.3 3.8.9 1.1.6 2 1.6 2.7 2.9h.5V168h3.2v16.2c0 .8.4 1.2 1.1 1.2h1v3h-2.2c-.9 0-1.7-.3-2.3-.9s-.9-1.4-.9-2.3v-.2H82c-.7 1.4-1.6 2.4-2.7 3s-2.4 1-3.7 1c-1.3 0-2.6-.2-3.7-.7-1.2-.5-2.2-1.1-3-2-.9-.9-1.5-2-2-3.3-.6-1.3-.8-2.8-.8-4.5zm3.3-.7v.7c0 2.3.6 4.1 1.8 5.4 1.2 1.3 2.8 2 4.7 2 1 0 1.8-.2 2.6-.5s1.5-.9 2.1-1.5c.6-.7 1-1.4 1.4-2.4.3-.9.5-1.9.5-3.1v-.5c0-1.1-.2-2.1-.5-3-.3-.9-.8-1.7-1.4-2.4s-1.3-1.2-2.1-1.5c-.8-.4-1.7-.6-2.6-.6-1 0-1.8.2-2.6.5-.8.4-1.5.9-2.1 1.5s-1 1.4-1.4 2.3c-.3 1-.4 2-.4 3.1zM92.5 159.6v11.6h.5c.7-1.2 1.7-2.2 3-2.8s2.6-1 4.1-1c1.3 0 2.5.2 3.6.7 1.1.5 2.1 1.1 3 2 .9.9 1.5 2 2.1 3.2s.8 2.8.8 4.4v.8c0 1.7-.2 3.1-.7 4.4-.5 1.3-1.2 2.4-2 3.2-.9.9-1.9 1.5-3 2s-2.4.7-3.7.7c-.7 0-1.3-.1-2-.2s-1.3-.4-2-.7c-.6-.3-1.2-.7-1.7-1.2s-1-1-1.3-1.6h-.5v3.1h-3.2v-28.8h3zm0 18.8c0 1.1.2 2.1.5 3.1.4.9.8 1.7 1.5 2.4s1.3 1.2 2.2 1.5c.8.4 1.7.5 2.7.5 1 0 1.9-.2 2.7-.5.8-.3 1.5-.8 2.2-1.5s1.1-1.4 1.4-2.3c.3-.9.5-1.9.5-3v-.8c0-1.1-.2-2.1-.5-3-.3-.9-.8-1.7-1.4-2.3s-1.3-1.1-2.2-1.5c-.8-.4-1.7-.5-2.7-.5-1 0-1.8.2-2.7.6-.8.4-1.5.9-2.2 1.5S93.4 174 93 175c-.4.9-.5 1.9-.5 3v.4zM112.2 188.3v-3h7.4v-22.8h-7.1v-3h10.4v25.8h7.4v3h-18.1zM132.9 178.5v-.7c0-1.7.2-3.1.7-4.4.5-1.3 1.2-2.4 2-3.3.9-.9 1.9-1.6 3-2 1.2-.5 2.4-.7 3.7-.7 1.4 0 2.7.3 3.8.9 1.1.6 2 1.6 2.7 2.9h.5V168h3.2v16.2c0 .8.4 1.2 1.1 1.2h1v3h-2.2c-.9 0-1.7-.3-2.3-.9s-.9-1.4-.9-2.3v-.2h-.5c-.7 1.4-1.6 2.4-2.7 3s-2.4 1-3.7 1c-1.3 0-2.6-.2-3.7-.7-1.2-.5-2.2-1.1-3-2-.9-.9-1.5-2-2-3.3-.5-1.3-.7-2.8-.7-4.5zm3.3-.7v.7c0 2.3.6 4.1 1.8 5.4 1.2 1.3 2.8 2 4.7 2 1 0 1.8-.2 2.6-.5s1.5-.9 2.1-1.5c.6-.7 1-1.4 1.4-2.4.3-.9.5-1.9.5-3.1v-.5c0-1.1-.2-2.1-.5-3-.3-.9-.8-1.7-1.4-2.4s-1.3-1.2-2.1-1.5c-.8-.4-1.7-.6-2.6-.6-1 0-1.8.2-2.6.5-.8.4-1.5.9-2.1 1.5s-1 1.4-1.4 2.3c-.3 1-.4 2-.4 3.1zM156.8 188.3V168h3.2v3.5h.5c1.3-2.7 3.5-4 6.6-4 2.4 0 4.2.7 5.6 2.2 1.4 1.5 2.1 3.7 2.1 6.6v12.2h-3.2V177c0-2.1-.5-3.7-1.4-4.8-1-1.1-2.3-1.6-3.9-1.6-1.9 0-3.5.7-4.6 2-1.1 1.3-1.7 3.1-1.7 5.3v10.6h-3.2zM178.7 173.6c.5-1.3 1.3-2.4 2.3-3.3 1-.9 2.1-1.6 3.3-2.1 1.3-.5 2.6-.7 4-.7 1.3 0 2.5.2 3.6.6 1.1.4 2.1.9 2.9 1.6s1.5 1.5 2.1 2.5c.5 1 .9 2 1.1 3.1l-3.2.7c-.1-.7-.3-1.4-.6-2.1s-.7-1.3-1.3-1.8c-.5-.5-1.2-.9-2-1.2-.8-.3-1.7-.5-2.7-.5-1 0-1.9.2-2.8.6-.9.4-1.6.9-2.3 1.6s-1.2 1.5-1.5 2.4c-.4.9-.6 1.9-.6 3v.5c0 1.2.2 2.2.6 3.1.4.9.9 1.7 1.5 2.3s1.4 1.1 2.3 1.5c.9.3 1.8.5 2.8.5s1.9-.2 2.6-.5c.8-.3 1.4-.7 1.9-1.2s1-1.1 1.3-1.7c.3-.7.5-1.3.6-2.1l3.2.7c-.2 1.1-.6 2.2-1.1 3.1-.5 1-1.2 1.8-2 2.5s-1.8 1.2-2.9 1.6c-1.1.4-2.3.6-3.7.6-1.4 0-2.8-.2-4-.7-1.3-.5-2.4-1.1-3.3-2-1-.9-1.7-2-2.3-3.3-.6-1.3-.8-2.8-.8-4.4v-.5c.2-1.6.5-3.1 1-4.4zM199.7 178.5v-.7c0-1.7.2-3.1.7-4.4.5-1.3 1.2-2.4 2-3.3.9-.9 1.9-1.6 3-2 1.2-.5 2.4-.7 3.7-.7 1.4 0 2.7.3 3.8.9 1.1.6 2 1.6 2.7 2.9h.5V168h3.2v16.2c0 .8.4 1.2 1.1 1.2h1v3h-2.2c-.9 0-1.7-.3-2.3-.9s-.9-1.4-.9-2.3v-.2h-.5c-.7 1.4-1.6 2.4-2.7 3s-2.4 1-3.7 1c-1.3 0-2.6-.2-3.7-.7-1.2-.5-2.2-1.1-3-2-.9-.9-1.5-2-2-3.3-.5-1.3-.7-2.8-.7-4.5zm3.2-.7v.7c0 2.3.6 4.1 1.8 5.4 1.2 1.3 2.8 2 4.7 2 1 0 1.8-.2 2.6-.5s1.5-.9 2.1-1.5c.6-.7 1-1.4 1.4-2.4.3-.9.5-1.9.5-3.1v-.5c0-1.1-.2-2.1-.5-3-.3-.9-.8-1.7-1.4-2.4s-1.3-1.2-2.1-1.5c-.8-.4-1.7-.6-2.6-.6-1 0-1.8.2-2.6.5-.8.4-1.5.9-2.1 1.5s-1 1.4-1.4 2.3c-.2 1-.4 2-.4 3.1zM251.6 178.2v-.5l-6-9.7h3.7l5.1 8.5h.7l5.1-8.5h3.7l-6 9.7v.5l6.5 10.2h-3.7l-5.5-9h-.7l-5.5 9h-3.7l6.3-10.2zM292.1 177.2v1c0 2.5.7 4.4 2.1 5.7s3.3 1.9 5.8 1.9c2.1 0 3.7-.5 4.8-1.4 1.1-.9 1.6-2.2 1.6-3.8v-.2c0-1.5-.6-2.7-1.7-3.5-1.1-.8-2.9-1.4-5.4-1.7-1.5-.2-2.8-.5-3.9-.9-1.2-.4-2.2-.9-3-1.6s-1.5-1.4-1.9-2.3c-.4-.9-.7-2-.7-3.2v-.5c0-1.1.2-2.1.7-3.1.5-.9 1.1-1.7 2-2.4.8-.7 1.8-1.2 3-1.6 1.2-.4 2.4-.6 3.8-.6 1.6 0 3.1.2 4.3.7s2.3 1.1 3.2 1.9 1.5 1.7 2 2.8c.5 1.1.7 2.2.7 3.3v1.7H306v-1.5c0-.9-.2-1.8-.6-2.5-.4-.7-.9-1.3-1.5-1.8s-1.4-.8-2.2-1.1c-.8-.2-1.7-.4-2.6-.4-.8 0-1.5.1-2.3.3-.7.2-1.3.5-1.9.9-.6.4-1 .9-1.3 1.4-.3.6-.5 1.2-.5 2v.2c0 .8.2 1.5.5 2 .3.6.8 1 1.5 1.4.6.4 1.4.7 2.4 1 1 .3 2.1.5 3.4.7 3 .5 5.2 1.3 6.7 2.6 1.4 1.3 2.1 3 2.1 5.2v.5c0 1.2-.2 2.4-.6 3.4-.4 1-1.1 1.9-1.9 2.6-.8.7-1.9 1.3-3.1 1.7-1.2.4-2.7.6-4.3.6-1.8 0-3.5-.3-4.9-.8-1.4-.5-2.6-1.3-3.5-2.2-.9-.9-1.7-2.1-2.2-3.3-.5-1.3-.7-2.7-.7-4.2v-1.2h3.6zM311.7 178.4v-1c0-1.4.3-2.8.8-4 .5-1.2 1.2-2.3 2.1-3.2.9-.9 2-1.6 3.2-2.1 1.2-.5 2.5-.8 4-.8 1.7 0 3.1.3 4.3.9 1.2.6 2.2 1.4 3 2.3s1.4 1.9 1.7 3c.4 1.1.6 2.1.6 3v2.6H315c.1 2 .7 3.7 1.9 4.9 1.2 1.2 2.8 1.8 4.9 1.8 1 0 1.8-.1 2.5-.3.7-.2 1.3-.5 1.8-.9s.9-.8 1.2-1.3c.3-.5.6-1 .8-1.6l3 .8c-.6 1.9-1.6 3.4-3.2 4.6-1.5 1.2-3.6 1.8-6.3 1.8-1.5 0-2.8-.3-4-.8-1.2-.5-2.3-1.2-3.1-2.2-.9-.9-1.6-2-2.1-3.3s-.7-2.6-.7-4.2zm3.3-2.2h13.1c-.1-.9-.3-1.7-.6-2.4-.4-.7-.8-1.3-1.4-1.8s-1.3-.9-2-1.2c-.8-.3-1.5-.4-2.3-.4-.9 0-1.7.1-2.5.4-.8.3-1.5.7-2.1 1.2-.6.5-1.1 1.1-1.4 1.8-.4.8-.7 1.6-.8 2.4zM334.2 168h6.4v-8.4h3.2v8.4h7.9v3h-7.9v13.2c0 .8.4 1.2 1.1 1.2h5.8v3h-6.9c-.9 0-1.7-.3-2.3-.9s-.9-1.4-.9-2.3V171h-6.4v-3zM356.4 168h6.4v-8.4h3.2v8.4h7.9v3H366v13.2c0 .8.4 1.2 1.1 1.2h5.8v3H366c-.9 0-1.7-.3-2.3-.9s-.9-1.4-.9-2.3V171h-6.4v-3zM377.7 178.5v-.7c0-1.7.2-3.1.7-4.4.5-1.3 1.2-2.4 2-3.3.9-.9 1.9-1.6 3-2 1.2-.5 2.4-.7 3.7-.7 1.4 0 2.7.3 3.8.9 1.1.6 2 1.6 2.7 2.9h.5V168h3.2v16.2c0 .8.4 1.2 1.1 1.2h1v3h-2.2c-.9 0-1.7-.3-2.3-.9s-.9-1.4-.9-2.3v-.2h-.5c-.7 1.4-1.6 2.4-2.7 3s-2.4 1-3.7 1c-1.3 0-2.6-.2-3.7-.7-1.2-.5-2.2-1.1-3-2-.9-.9-1.5-2-2-3.3-.4-1.3-.7-2.8-.7-4.5zm3.3-.7v.7c0 2.3.6 4.1 1.8 5.4 1.2 1.3 2.8 2 4.7 2 1 0 1.8-.2 2.6-.5s1.5-.9 2.1-1.5c.6-.7 1-1.4 1.4-2.4.3-.9.5-1.9.5-3.1v-.5c0-1.1-.2-2.1-.5-3-.3-.9-.8-1.7-1.4-2.4s-1.3-1.2-2.1-1.5c-.8-.4-1.7-.6-2.6-.6-1 0-1.8.2-2.6.5-.8.4-1.5.9-2.1 1.5s-1 1.4-1.4 2.3c-.2 1-.4 2-.4 3.1zM400.9 168h6.4v-8.4h3.2v8.4h7.9v3h-7.9v13.2c0 .8.4 1.2 1.1 1.2h5.8v3h-6.9c-.9 0-1.7-.3-2.3-.9s-.9-1.4-.9-2.3V171h-6.4v-3zM448.1 169c0-1.3.2-2.6.7-3.8.4-1.2 1.1-2.3 1.9-3.2s1.9-1.7 3.2-2.2c1.3-.5 2.7-.8 4.4-.8 1.7 0 3.1.3 4.4.8s2.3 1.2 3.1 2c.8.8 1.4 1.8 1.8 2.8.4 1.1.6 2.1.6 3.2v.7c0 2.2-.7 4.1-2.1 5.6s-3.6 2.6-6.6 3.3c-2.6.6-4.6 1.3-5.8 2.3-1.2.9-1.8 2.3-1.8 4.1v1.2h16v3.2h-19.5v-4.9c0-1.3.2-2.5.7-3.4.4-1 1.1-1.8 1.9-2.5.8-.7 1.8-1.3 2.9-1.7 1.1-.5 2.5-.9 3.9-1.2 2.4-.5 4.2-1.3 5.3-2.3 1.1-1 1.6-2.3 1.6-3.7v-.2c0-.7-.1-1.5-.4-2.2-.2-.7-.6-1.4-1.2-1.9-.5-.6-1.2-1-2-1.4-.8-.3-1.8-.5-2.9-.5-2.1 0-3.7.6-4.9 1.9-1.2 1.3-1.7 3-1.7 5.1v1.8h-3.5V169zM476.3 162.1c1.8-2.1 4.3-3.1 7.4-3.1 3.2 0 5.7 1 7.4 3.1s2.7 4.9 2.7 8.7v6.4c0 3.8-.9 6.8-2.7 8.7s-4.3 3-7.4 3c-3.2 0-5.7-1-7.4-3s-2.7-4.9-2.7-8.7v-6.4c0-3.8.9-6.6 2.7-8.7zm.8 8.9v5.9c0 2.8.6 5 1.7 6.6 1.1 1.5 2.8 2.3 5 2.3s3.9-.8 5-2.3c1.1-1.5 1.7-3.7 1.7-6.6V171c0-1.3-.1-2.5-.4-3.6-.3-1.1-.7-2-1.3-2.8-.6-.8-1.3-1.4-2.1-1.8-.8-.4-1.8-.7-2.9-.7-1.1 0-2.1.2-2.9.7-.8.4-1.5 1-2.1 1.8-.6.8-1 1.7-1.3 2.8-.3 1.1-.4 2.3-.4 3.6zM499.5 169c0-1.3.2-2.6.7-3.8.4-1.2 1.1-2.3 1.9-3.2s1.9-1.7 3.2-2.2c1.3-.5 2.7-.8 4.4-.8 1.7 0 3.1.3 4.4.8s2.3 1.2 3.1 2c.8.8 1.4 1.8 1.8 2.8.4 1.1.6 2.1.6 3.2v.7c0 2.2-.7 4.1-2.1 5.6s-3.6 2.6-6.6 3.3c-2.6.6-4.6 1.3-5.8 2.3-1.2.9-1.8 2.3-1.8 4.1v1.2h16v3.2h-19.5v-4.9c0-1.3.2-2.5.7-3.4.4-1 1.1-1.8 1.9-2.5.8-.7 1.8-1.3 2.9-1.7 1.1-.5 2.5-.9 3.9-1.2 2.4-.5 4.2-1.3 5.3-2.3 1.1-1 1.6-2.3 1.6-3.7v-.2c0-.7-.1-1.5-.4-2.2-.2-.7-.6-1.4-1.2-1.9-.5-.6-1.2-1-2-1.4-.8-.3-1.8-.5-2.9-.5-2.1 0-3.7.6-4.9 1.9-1.2 1.3-1.7 3-1.7 5.1v1.8h-3.5V169zM527.7 162.1c1.8-2.1 4.3-3.1 7.4-3.1 3.2 0 5.7 1 7.4 3.1s2.7 4.9 2.7 8.7v6.4c0 3.8-.9 6.8-2.7 8.7s-4.3 3-7.4 3c-3.2 0-5.7-1-7.4-3s-2.7-4.9-2.7-8.7v-6.4c.1-3.8 1-6.6 2.7-8.7zm.8 8.9v5.9c0 2.8.6 5 1.7 6.6 1.1 1.5 2.8 2.3 5 2.3s3.9-.8 5-2.3c1.1-1.5 1.7-3.7 1.7-6.6V171c0-1.3-.1-2.5-.4-3.6-.3-1.1-.7-2-1.3-2.8-.6-.8-1.3-1.4-2.1-1.8-.8-.4-1.8-.7-2.9-.7-1.1 0-2.1.2-2.9.7-.8.4-1.5 1-2.1 1.8-.6.8-1 1.7-1.3 2.8-.2 1.1-.4 2.3-.4 3.6z"/>
</svg>